<?xml version="1.0" encoding="UTF-8" standalone="no"?>
<!-- Created with Inkscape (http://www.inkscape.org/) -->

<svg
   xmlns:dc="http://purl.org/dc/elements/1.1/"
   xmlns:cc="http://creativecommons.org/ns#"
   xmlns:rdf="http://www.w3.org/1999/02/22-rdf-syntax-ns#"
   xmlns:svg="http://www.w3.org/2000/svg"
   xmlns="http://www.w3.org/2000/svg"
   xmlns:sodipodi="http://sodipodi.sourceforge.net/DTD/sodipodi-0.dtd"
   xmlns:inkscape="http://www.inkscape.org/namespaces/inkscape"
   width="159.54739mm"
   height="107.65827mm"
   viewBox="0 0 565.32541 381.46632"
   id="svg5702"
   version="1.1"
   inkscape:version="0.91 r13725"
   sodipodi:docname="cat.svg">
  <defs
     id="defs5704" />
  <sodipodi:namedview
     id="base"
     pagecolor="#ffffff"
     bordercolor="#666666"
     borderopacity="1.0"
     inkscape:pageopacity="0.0"
     inkscape:pageshadow="2"
     inkscape:zoom="1.1431956"
     inkscape:cx="192.25382"
     inkscape:cy="113.15017"
     inkscape:document-units="px"
     inkscape:current-layer="layer2"
     showgrid="false"
     inkscape:window-width="1440"
     inkscape:window-height="897"
     inkscape:window-x="-8"
     inkscape:window-y="-8"
     inkscape:window-maximized="1"
     fit-margin-top="0"
     fit-margin-left="0"
     fit-margin-right="0"
     fit-margin-bottom="0" />
  <metadata
     id="metadata5707">
    <rdf:RDF>
      <cc:Work
         rdf:about="">
        <dc:format>image/svg+xml</dc:format>
        <dc:type
           rdf:resource="http://purl.org/dc/dcmitype/StillImage" />
        <dc:title></dc:title>
      </cc:Work>
    </rdf:RDF>
  </metadata>
  <g
     inkscape:groupmode="layer"
     id="layer2"
     inkscape:label="Layer 2"
     style="opacity:1"
     transform="translate(-97.003511,-167.64807)">
    <g
       id="g6376"
       transform="translate(36.739121,-144.33226)">
      <path
         inkscape:connector-curvature="0"
         id="path6262"
         d="m 250.41171,362.53241 c -3.38015,0.0311 -6.84708,0.90976 -10.32421,2.85938 -16.2542,9.11357 -22.16802,36.68792 -23.94141,53.96679 -63.40044,24.67669 -102.78615,74.18326 -101.75781,131.03321 2.12472,117.46218 100.97101,146.26154 229.98437,140.69922 165.07346,-7.11701 249.78157,-52.35806 232.8418,-146.41211 -8.96808,-49.79312 -52.56581,-89.58143 -117.95703,-114.44922 0.86478,-8.83202 1.78805,-21.57484 0.84179,-29.22656 -1.93081,-15.61326 -12.71008,-31.7811 -28.93554,-31.76954 -1.0817,7.8e-4 -2.1873,0.0731 -3.31641,0.22266 -18.30484,2.42433 -33.881,25.43903 -41.99219,40.83594 -15.11842,-2.72844 -30.88067,-4.84403 -47.19726,-6.3125 -17.50469,-1.5754 -34.35752,-1.67005 -50.42969,-0.46484 -2.68427,-6.71101 -5.79773,-14.01787 -8.47266,-18.88672 -6.31269,-11.49027 -17.27177,-22.20686 -29.34375,-22.09571 z"
         style="opacity:1;fill:#fff6d5;fill-opacity:1;stroke:#000000;stroke-width:3;stroke-linecap:butt;stroke-linejoin:round;stroke-miterlimit:4;stroke-dasharray:none" />
      <path
         id="path6267"
         d="m 307.14062,399.66016 c -6.83462,0.0357 -13.5403,0.31638 -20.12109,0.80273 a 27.142857,67.14286 5.0464981 0 0 21.35938,65.92383 27.142857,67.14286 5.0464981 0 0 26.45117,-31.70117 27.142857,67.14286 5.0464981 0 0 20.6914,37.41601 27.142857,67.14286 5.0464981 0 0 32.90235,-64.07812 c -16.35859,-3.09594 -33.48803,-5.47285 -51.28125,-7.07422 -10.23062,-0.92074 -20.24016,-1.34004 -30.00196,-1.28906 z"
         style="opacity:1;fill:#800000;fill-opacity:1;stroke:#000000;stroke-width:3;stroke-linecap:butt;stroke-linejoin:round;stroke-miterlimit:4;stroke-dasharray:none"
         inkscape:connector-curvature="0" />
      <path
         sodipodi:nodetypes="sssss"
         inkscape:connector-curvature="0"
         id="path6283"
         d="m 307.08638,491.98009 c 0,40.02874 -40.53092,64.39723 -80.55966,64.39723 -40.02874,0 -82.57998,-24.36849 -82.57998,-64.39723 0,-40.02874 43.56139,-75.00383 83.59013,-75.00383 40.02874,0 79.54951,34.97509 79.54951,75.00383 z"
         style="opacity:1;fill:#ffffff;fill-opacity:1;stroke:#000000;stroke-width:3;stroke-linecap:butt;stroke-linejoin:round;stroke-miterlimit:4;stroke-dasharray:none" />
      <path
         style="opacity:1;fill:#ffffff;fill-opacity:1;stroke:#000000;stroke-width:3;stroke-linecap:butt;stroke-linejoin:round;stroke-miterlimit:4;stroke-dasharray:none"
         d="m 512.14735,501.07146 c 0,40.02874 -42.31663,75.46866 -82.34537,75.46866 -40.02874,0 -80.79427,-35.43992 -80.79427,-75.46866 0,-40.02874 43.56139,-75.00383 83.59013,-75.00383 40.02874,0 79.54951,34.97509 79.54951,75.00383 z"
         id="path6286"
         inkscape:connector-curvature="0"
         sodipodi:nodetypes="sssss" />
      <circle
         r="7.6785712"
         cy="491.46933"
         cx="221.25002"
         id="path6288"
         style="opacity:1;fill:#000000;fill-opacity:1;stroke:none;stroke-width:3;stroke-linecap:butt;stroke-linejoin:round;stroke-miterlimit:4;stroke-dasharray:none" />
      <circle
         style="opacity:1;fill:#000000;fill-opacity:1;stroke:none;stroke-width:3;stroke-linecap:butt;stroke-linejoin:round;stroke-miterlimit:4;stroke-dasharray:none"
         id="circle6294"
         cx="428.75003"
         cy="503.25504"
         r="7.6785712" />
      <path
         id="rect6296"
         d="m 272.85742,609.86133 c -13.39072,27.39845 -18.3716,52.27517 -23.9375,77.32617 28.83603,4.42566 61.07303,5.38657 95.45313,3.9043 19.94055,-0.85972 38.69628,-2.28225 56.2539,-4.27344 -0.29212,-20.11255 -1.06071,-40.54196 -4.91211,-63.02734 -44.90537,-10.17706 -82.17263,-9.66147 -122.85742,-13.92969 z"
         style="opacity:1;fill:#aa0000;fill-opacity:0.69019608;stroke:#000000;stroke-width:2.79999995;stroke-linecap:round;stroke-linejoin:round;stroke-miterlimit:4;stroke-dasharray:none"
         inkscape:connector-curvature="0" />
      <path
         sodipodi:nodetypes="cccccccsccc"
         inkscape:connector-curvature="0"
         id="path6304"
         d="m 275.06641,610.07812 c 3.60277,13.53858 6.71875,33.35547 6.71875,33.35547 0,0 14.7027,-19.16838 28.57226,-29.64257 5.74033,9.25483 16.07031,32.14257 16.07031,32.14257 0,0 17.11367,-18.20602 22.5,-29.64257 l 10,26.42773 18.92969,-22.5 13.21485,26.42969 c 2.06008,4.12016 5.73895,-10.72367 5.99218,-14.1836 -0.40241,-2.85928 -0.84859,-5.74878 -1.34961,-8.67382 -44.08877,-9.992 -80.82194,-9.68809 -120.64843,-13.7129 z"
         style="display:inline;opacity:1;fill:#ffffff;fill-rule:evenodd;stroke:#000000;stroke-width:1px;stroke-linecap:butt;stroke-linejoin:miter;stroke-opacity:1" />
      <path
         sodipodi:nodetypes="ssss"
         inkscape:connector-curvature="0"
         id="path6312"
         d="m 298.57143,562.71935 c 0.79422,-8.44888 46.9083,-5.6102 51.78571,4.64285 4.36599,9.17796 -15.81258,24.93357 -26.42857,25.71429 -10.13145,0.74509 -26.45541,-18.67386 -25.35714,-30.35714 z"
         style="fill:#000000;fill-rule:evenodd;stroke:#000000;stroke-width:1px;stroke-linecap:butt;stroke-linejoin:miter;stroke-opacity:1" />
      <path
         sodipodi:nodetypes="cc"
         inkscape:connector-curvature="0"
         id="path6316"
         d="m 321.78571,587.00506 c -1.33492,9.43016 -2.66732,18.8578 -2.14285,26.42857"
         style="fill:none;fill-rule:evenodd;stroke:#000000;stroke-width:3;stroke-linecap:butt;stroke-linejoin:miter;stroke-miterlimit:4;stroke-dasharray:none;stroke-opacity:1" />
      <path
         sodipodi:nodetypes="csssscc"
         inkscape:connector-curvature="0"
         id="path6302"
         d="m 400,670.93363 c 0,0 -40.4752,-7.04833 -64.64286,-10.35714 -26.7405,-3.66107 -49.39595,-8.67306 -80.71428,-6.42857 -20.84004,1.49354 -66.5517,3.87314 -73.21429,25 -6.65795,21.11215 43.28078,10.14699 65.35714,11.78571 51.07335,3.79115 153.57143,-4.64285 153.57143,-4.64285 z"
         style="display:inline;opacity:1;fill:#ff0000;fill-rule:evenodd;stroke:#000000;stroke-width:2.20000005;stroke-linecap:butt;stroke-linejoin:miter;stroke-miterlimit:4;stroke-dasharray:none;stroke-opacity:1" />
      <path
         sodipodi:nodetypes="csc"
         inkscape:connector-curvature="0"
         id="path6319"
         d="m 482.14286,578.07649 c 0,0 55.43451,-5.61254 77.5,-4.64286 21.93787,0.96407 52.5,11.42858 52.5,11.42858"
         style="display:inline;opacity:1;fill:none;fill-rule:evenodd;stroke:#000000;stroke-width:3;stroke-linecap:round;stroke-linejoin:miter;stroke-miterlimit:4;stroke-dasharray:none;stroke-opacity:1" />
      <path
         sodipodi:nodetypes="cc"
         inkscape:connector-curvature="0"
         id="path6322"
         d="m 480.35714,596.64792 c 41.1633,6.93194 82.98874,13.20174 116.78572,27.5"
         style="display:inline;opacity:1;fill:none;fill-rule:evenodd;stroke:#000000;stroke-width:3;stroke-linecap:round;stroke-linejoin:miter;stroke-miterlimit:4;stroke-dasharray:none;stroke-opacity:1" />
      <path
         sodipodi:nodetypes="cc"
         inkscape:connector-curvature="0"
         id="path6325"
         d="M 182.14286,589.50506 C 144.14309,581.11011 106.27898,572.4826 61.785714,575.21935"
         style="fill:none;fill-rule:evenodd;stroke:#000000;stroke-width:3;stroke-linecap:round;stroke-linejoin:miter;stroke-miterlimit:4;stroke-dasharray:none;stroke-opacity:1" />
      <path
         sodipodi:nodetypes="cc"
         inkscape:connector-curvature="0"
         id="path6327"
         d="M 75.357143,617.3622 C 115.26309,610.51768 149.62146,611.43978 185,610.93363"
         style="fill:none;fill-rule:evenodd;stroke:#000000;stroke-width:3;stroke-linecap:round;stroke-linejoin:miter;stroke-miterlimit:4;stroke-dasharray:none;stroke-opacity:1" />
      <path
         id="rect6329"
         d="m 597.24609,311.98242 c -5.80083,-0.0683 -10.9788,1.53262 -13.75,5.41406 -19.29934,27.03144 -36.35476,54.51118 -50.16406,82.64063 l 7.54102,11.90625 21.33593,-14.5957 4.50391,25.90234 7.00586,-1.31445 50.44141,-86.97461 c 6.80398,-11.73237 -12.08971,-22.80387 -26.91407,-22.97852 z m -68.99414,98.72266 c -4.80152,10.47622 -9.14127,21.04576 -12.95898,31.71875 l 34.60156,20.59375 17.20508,-29.66602 -8.50195,1.59375 -3.57813,-20.56445 -17.05078,11.66797 -9.7168,-15.34375 z"
         style="display:inline;opacity:1;fill:#000000;fill-opacity:1;stroke:none;stroke-width:3;stroke-linecap:round;stroke-linejoin:round;stroke-miterlimit:4;stroke-dasharray:none"
         inkscape:connector-curvature="0" />
      <path
         sodipodi:nodetypes="cc"
         inkscape:connector-curvature="0"
         id="path6354"
         d="m 164.14979,407.88488 c -0.7631,-14.85492 8.24948,-29.88641 21.2132,-12.62691"
         style="fill:none;fill-rule:evenodd;stroke:#000000;stroke-width:3;stroke-linecap:butt;stroke-linejoin:miter;stroke-miterlimit:4;stroke-dasharray:none;stroke-opacity:1" />
      <path
         sodipodi:nodetypes="cc"
         inkscape:connector-curvature="0"
         id="path6356"
         d="m 473.25647,409.90519 c 14.65222,-16.35252 23.70455,-8.43884 30.30457,10.10152"
         style="fill:none;fill-rule:evenodd;stroke:#000000;stroke-width:3;stroke-linecap:butt;stroke-linejoin:miter;stroke-miterlimit:4;stroke-dasharray:none;stroke-opacity:1" />
      <path
         sodipodi:nodetypes="ccc"
         inkscape:connector-curvature="0"
         id="path6358"
         d="m 537.40115,504.35445 c -5.0984,4.18515 -9.32243,8.80748 -9.09137,15.65736 l -3.03046,11.61676"
         style="fill:none;fill-rule:evenodd;stroke:#000000;stroke-width:3;stroke-linecap:round;stroke-linejoin:miter;stroke-miterlimit:4;stroke-dasharray:none;stroke-opacity:1" />
      <path
         sodipodi:nodetypes="cc"
         inkscape:connector-curvature="0"
         id="path6360"
         d="m 545.98745,507.88998 c -5.21913,16.52524 -6.39763,22.24352 -9.59645,28.28427"
         style="display:inline;opacity:1;fill:none;fill-rule:evenodd;stroke:#000000;stroke-width:3;stroke-linecap:round;stroke-linejoin:miter;stroke-miterlimit:4;stroke-dasharray:none;stroke-opacity:1" />
      <path
         sodipodi:nodetypes="cc"
         inkscape:connector-curvature="0"
         id="path6363"
         d="m 557.09913,515.9712 c -5.07602,10.58134 -4.95214,18.28138 -8.5863,26.26397"
         style="fill:none;fill-rule:evenodd;stroke:#000000;stroke-width:3;stroke-linecap:round;stroke-linejoin:miter;stroke-miterlimit:4;stroke-dasharray:none;stroke-opacity:1" />
      <path
         sodipodi:nodetypes="cc"
         inkscape:connector-curvature="0"
         id="path6365"
         d="m 544.47222,674.56515 c 7.64814,-1.46563 6.18695,-9.45211 20.70813,-16.66751"
         style="fill:none;fill-rule:evenodd;stroke:#000000;stroke-width:3;stroke-linecap:round;stroke-linejoin:miter;stroke-miterlimit:4;stroke-dasharray:none;stroke-opacity:1" />
      <path
         sodipodi:nodetypes="cc"
         inkscape:connector-curvature="0"
         id="path6367"
         d="m 556.08898,684.1616 c 1.34859,-7.40693 8.80498,-11.75995 18.18274,-15.15229"
         style="fill:none;fill-rule:evenodd;stroke:#000000;stroke-width:3;stroke-linecap:round;stroke-linejoin:miter;stroke-miterlimit:4;stroke-dasharray:none;stroke-opacity:1" />
      <path
         sodipodi:nodetypes="csc"
         inkscape:connector-curvature="0"
         id="path6369"
         d="m 96.469568,485.66663 c 0,0 -7.347255,7.01935 -9.091373,11.61675 -2.931637,7.72762 -1.515229,24.74874 -1.515229,24.74874"
         style="display:inline;opacity:1;fill:none;fill-rule:evenodd;stroke:#000000;stroke-width:3;stroke-linecap:round;stroke-linejoin:miter;stroke-miterlimit:4;stroke-dasharray:none;stroke-opacity:1" />
      <path
         sodipodi:nodetypes="csc"
         inkscape:connector-curvature="0"
         id="path6374"
         d="m 111.11678,491.22247 c 0,0 -7.43767,10.55881 -9.09137,16.66751 -1.49642,5.52771 -0.50508,17.1726 -0.50508,17.1726"
         style="fill:none;fill-rule:evenodd;stroke:#000000;stroke-width:3;stroke-linecap:butt;stroke-linejoin:miter;stroke-miterlimit:4;stroke-dasharray:none;stroke-opacity:1" />
    </g>
  </g>
</svg>
