<?xml version="1.0" encoding="utf-8" standalone="no"?>
<!DOCTYPE svg PUBLIC "-//W3C//DTD SVG 1.1//EN"
  "http://www.w3.org/Graphics/SVG/1.1/DTD/svg11.dtd">
<!-- Created with matplotlib (http://matplotlib.org/) -->
<svg height="345.6pt" version="1.1" viewBox="0 0 460.8 345.6" width="460.8pt" xmlns="http://www.w3.org/2000/svg" xmlns:xlink="http://www.w3.org/1999/xlink">
 <defs>
  <style type="text/css">
*{stroke-linecap:butt;stroke-linejoin:round;}
  </style>
 </defs>
 <g id="figure_1">
  <g id="patch_1">
   <path d="M 0 345.6 
L 460.8 345.6 
L 460.8 0 
L 0 0 
z
" style="fill:#ffffff;"/>
  </g>
  <g id="axes_1">
   <g id="patch_2">
    <path d="M 57.6 307.584 
L 414.72 307.584 
L 414.72 41.472 
L 57.6 41.472 
z
" style="fill:#ffffff;"/>
   </g>
   <g id="matplotlib.axis_1">
    <g id="xtick_1">
     <g id="line2d_1">
      <defs>
       <path d="M 0 0 
L 0 3.5 
" id="m53183abeea" style="stroke:#000000;stroke-width:0.8;"/>
      </defs>
      <g>
       <use style="stroke:#000000;stroke-width:0.8;" x="73.832727" xlink:href="#m53183abeea" y="307.584"/>
      </g>
     </g>
     <g id="text_1">
      <!-- 0 -->
      <defs>
       <path d="M 31.78125 66.40625 
Q 24.171875 66.40625 20.328125 58.90625 
Q 16.5 51.421875 16.5 36.375 
Q 16.5 21.390625 20.328125 13.890625 
Q 24.171875 6.390625 31.78125 6.390625 
Q 39.453125 6.390625 43.28125 13.890625 
Q 47.125 21.390625 47.125 36.375 
Q 47.125 51.421875 43.28125 58.90625 
Q 39.453125 66.40625 31.78125 66.40625 
z
M 31.78125 74.21875 
Q 44.046875 74.21875 50.515625 64.515625 
Q 56.984375 54.828125 56.984375 36.375 
Q 56.984375 17.96875 50.515625 8.265625 
Q 44.046875 -1.421875 31.78125 -1.421875 
Q 19.53125 -1.421875 13.0625 8.265625 
Q 6.59375 17.96875 6.59375 36.375 
Q 6.59375 54.828125 13.0625 64.515625 
Q 19.53125 74.21875 31.78125 74.21875 
z
" id="DejaVuSans-30"/>
      </defs>
      <g transform="translate(70.651477 322.182437)scale(0.1 -0.1)">
       <use xlink:href="#DejaVuSans-30"/>
      </g>
     </g>
    </g>
    <g id="xtick_2">
     <g id="line2d_2">
      <g>
       <use style="stroke:#000000;stroke-width:0.8;" x="125.503103" xlink:href="#m53183abeea" y="307.584"/>
      </g>
     </g>
     <g id="text_2">
      <!-- 1 -->
      <defs>
       <path d="M 12.40625 8.296875 
L 28.515625 8.296875 
L 28.515625 63.921875 
L 10.984375 60.40625 
L 10.984375 69.390625 
L 28.421875 72.90625 
L 38.28125 72.90625 
L 38.28125 8.296875 
L 54.390625 8.296875 
L 54.390625 0 
L 12.40625 0 
z
" id="DejaVuSans-31"/>
      </defs>
      <g transform="translate(122.321853 322.182437)scale(0.1 -0.1)">
       <use xlink:href="#DejaVuSans-31"/>
      </g>
     </g>
    </g>
    <g id="xtick_3">
     <g id="line2d_3">
      <g>
       <use style="stroke:#000000;stroke-width:0.8;" x="177.173479" xlink:href="#m53183abeea" y="307.584"/>
      </g>
     </g>
     <g id="text_3">
      <!-- 2 -->
      <defs>
       <path d="M 19.1875 8.296875 
L 53.609375 8.296875 
L 53.609375 0 
L 7.328125 0 
L 7.328125 8.296875 
Q 12.9375 14.109375 22.625 23.890625 
Q 32.328125 33.6875 34.8125 36.53125 
Q 39.546875 41.84375 41.421875 45.53125 
Q 43.3125 49.21875 43.3125 52.78125 
Q 43.3125 58.59375 39.234375 62.25 
Q 35.15625 65.921875 28.609375 65.921875 
Q 23.96875 65.921875 18.8125 64.3125 
Q 13.671875 62.703125 7.8125 59.421875 
L 7.8125 69.390625 
Q 13.765625 71.78125 18.9375 73 
Q 24.125 74.21875 28.421875 74.21875 
Q 39.75 74.21875 46.484375 68.546875 
Q 53.21875 62.890625 53.21875 53.421875 
Q 53.21875 48.921875 51.53125 44.890625 
Q 49.859375 40.875 45.40625 35.40625 
Q 44.1875 33.984375 37.640625 27.21875 
Q 31.109375 20.453125 19.1875 8.296875 
z
" id="DejaVuSans-32"/>
      </defs>
      <g transform="translate(173.992229 322.182437)scale(0.1 -0.1)">
       <use xlink:href="#DejaVuSans-32"/>
      </g>
     </g>
    </g>
    <g id="xtick_4">
     <g id="line2d_4">
      <g>
       <use style="stroke:#000000;stroke-width:0.8;" x="228.843854" xlink:href="#m53183abeea" y="307.584"/>
      </g>
     </g>
     <g id="text_4">
      <!-- 3 -->
      <defs>
       <path d="M 40.578125 39.3125 
Q 47.65625 37.796875 51.625 33 
Q 55.609375 28.21875 55.609375 21.1875 
Q 55.609375 10.40625 48.1875 4.484375 
Q 40.765625 -1.421875 27.09375 -1.421875 
Q 22.515625 -1.421875 17.65625 -0.515625 
Q 12.796875 0.390625 7.625 2.203125 
L 7.625 11.71875 
Q 11.71875 9.328125 16.59375 8.109375 
Q 21.484375 6.890625 26.8125 6.890625 
Q 36.078125 6.890625 40.9375 10.546875 
Q 45.796875 14.203125 45.796875 21.1875 
Q 45.796875 27.640625 41.28125 31.265625 
Q 36.765625 34.90625 28.71875 34.90625 
L 20.21875 34.90625 
L 20.21875 43.015625 
L 29.109375 43.015625 
Q 36.375 43.015625 40.234375 45.921875 
Q 44.09375 48.828125 44.09375 54.296875 
Q 44.09375 59.90625 40.109375 62.90625 
Q 36.140625 65.921875 28.71875 65.921875 
Q 24.65625 65.921875 20.015625 65.03125 
Q 15.375 64.15625 9.8125 62.3125 
L 9.8125 71.09375 
Q 15.4375 72.65625 20.34375 73.4375 
Q 25.25 74.21875 29.59375 74.21875 
Q 40.828125 74.21875 47.359375 69.109375 
Q 53.90625 64.015625 53.90625 55.328125 
Q 53.90625 49.265625 50.4375 45.09375 
Q 46.96875 40.921875 40.578125 39.3125 
z
" id="DejaVuSans-33"/>
      </defs>
      <g transform="translate(225.662604 322.182437)scale(0.1 -0.1)">
       <use xlink:href="#DejaVuSans-33"/>
      </g>
     </g>
    </g>
    <g id="xtick_5">
     <g id="line2d_5">
      <g>
       <use style="stroke:#000000;stroke-width:0.8;" x="280.51423" xlink:href="#m53183abeea" y="307.584"/>
      </g>
     </g>
     <g id="text_5">
      <!-- 4 -->
      <defs>
       <path d="M 37.796875 64.3125 
L 12.890625 25.390625 
L 37.796875 25.390625 
z
M 35.203125 72.90625 
L 47.609375 72.90625 
L 47.609375 25.390625 
L 58.015625 25.390625 
L 58.015625 17.1875 
L 47.609375 17.1875 
L 47.609375 0 
L 37.796875 0 
L 37.796875 17.1875 
L 4.890625 17.1875 
L 4.890625 26.703125 
z
" id="DejaVuSans-34"/>
      </defs>
      <g transform="translate(277.33298 322.182437)scale(0.1 -0.1)">
       <use xlink:href="#DejaVuSans-34"/>
      </g>
     </g>
    </g>
    <g id="xtick_6">
     <g id="line2d_6">
      <g>
       <use style="stroke:#000000;stroke-width:0.8;" x="332.184606" xlink:href="#m53183abeea" y="307.584"/>
      </g>
     </g>
     <g id="text_6">
      <!-- 5 -->
      <defs>
       <path d="M 10.796875 72.90625 
L 49.515625 72.90625 
L 49.515625 64.59375 
L 19.828125 64.59375 
L 19.828125 46.734375 
Q 21.96875 47.46875 24.109375 47.828125 
Q 26.265625 48.1875 28.421875 48.1875 
Q 40.625 48.1875 47.75 41.5 
Q 54.890625 34.8125 54.890625 23.390625 
Q 54.890625 11.625 47.5625 5.09375 
Q 40.234375 -1.421875 26.90625 -1.421875 
Q 22.3125 -1.421875 17.546875 -0.640625 
Q 12.796875 0.140625 7.71875 1.703125 
L 7.71875 11.625 
Q 12.109375 9.234375 16.796875 8.0625 
Q 21.484375 6.890625 26.703125 6.890625 
Q 35.15625 6.890625 40.078125 11.328125 
Q 45.015625 15.765625 45.015625 23.390625 
Q 45.015625 31 40.078125 35.4375 
Q 35.15625 39.890625 26.703125 39.890625 
Q 22.75 39.890625 18.8125 39.015625 
Q 14.890625 38.140625 10.796875 36.28125 
z
" id="DejaVuSans-35"/>
      </defs>
      <g transform="translate(329.003356 322.182437)scale(0.1 -0.1)">
       <use xlink:href="#DejaVuSans-35"/>
      </g>
     </g>
    </g>
    <g id="xtick_7">
     <g id="line2d_7">
      <g>
       <use style="stroke:#000000;stroke-width:0.8;" x="383.854982" xlink:href="#m53183abeea" y="307.584"/>
      </g>
     </g>
     <g id="text_7">
      <!-- 6 -->
      <defs>
       <path d="M 33.015625 40.375 
Q 26.375 40.375 22.484375 35.828125 
Q 18.609375 31.296875 18.609375 23.390625 
Q 18.609375 15.53125 22.484375 10.953125 
Q 26.375 6.390625 33.015625 6.390625 
Q 39.65625 6.390625 43.53125 10.953125 
Q 47.40625 15.53125 47.40625 23.390625 
Q 47.40625 31.296875 43.53125 35.828125 
Q 39.65625 40.375 33.015625 40.375 
z
M 52.59375 71.296875 
L 52.59375 62.3125 
Q 48.875 64.0625 45.09375 64.984375 
Q 41.3125 65.921875 37.59375 65.921875 
Q 27.828125 65.921875 22.671875 59.328125 
Q 17.53125 52.734375 16.796875 39.40625 
Q 19.671875 43.65625 24.015625 45.921875 
Q 28.375 48.1875 33.59375 48.1875 
Q 44.578125 48.1875 50.953125 41.515625 
Q 57.328125 34.859375 57.328125 23.390625 
Q 57.328125 12.15625 50.6875 5.359375 
Q 44.046875 -1.421875 33.015625 -1.421875 
Q 20.359375 -1.421875 13.671875 8.265625 
Q 6.984375 17.96875 6.984375 36.375 
Q 6.984375 53.65625 15.1875 63.9375 
Q 23.390625 74.21875 37.203125 74.21875 
Q 40.921875 74.21875 44.703125 73.484375 
Q 48.484375 72.75 52.59375 71.296875 
z
" id="DejaVuSans-36"/>
      </defs>
      <g transform="translate(380.673732 322.182437)scale(0.1 -0.1)">
       <use xlink:href="#DejaVuSans-36"/>
      </g>
     </g>
    </g>
   </g>
   <g id="matplotlib.axis_2">
    <g id="ytick_1">
     <g id="line2d_8">
      <defs>
       <path d="M 0 0 
L -3.5 0 
" id="m5ae5414471" style="stroke:#000000;stroke-width:0.8;"/>
      </defs>
      <g>
       <use style="stroke:#000000;stroke-width:0.8;" x="57.6" xlink:href="#m5ae5414471" y="295.503227"/>
      </g>
     </g>
     <g id="text_8">
      <!-- −1.00 -->
      <defs>
       <path d="M 10.59375 35.5 
L 73.1875 35.5 
L 73.1875 27.203125 
L 10.59375 27.203125 
z
" id="DejaVuSans-2212"/>
       <path d="M 10.6875 12.40625 
L 21 12.40625 
L 21 0 
L 10.6875 0 
z
" id="DejaVuSans-2e"/>
      </defs>
      <g transform="translate(19.954687 299.302446)scale(0.1 -0.1)">
       <use xlink:href="#DejaVuSans-2212"/>
       <use x="83.789062" xlink:href="#DejaVuSans-31"/>
       <use x="147.412109" xlink:href="#DejaVuSans-2e"/>
       <use x="179.199219" xlink:href="#DejaVuSans-30"/>
       <use x="242.822266" xlink:href="#DejaVuSans-30"/>
      </g>
     </g>
    </g>
    <g id="ytick_2">
     <g id="line2d_9">
      <g>
       <use style="stroke:#000000;stroke-width:0.8;" x="57.6" xlink:href="#m5ae5414471" y="265.259421"/>
      </g>
     </g>
     <g id="text_9">
      <!-- −0.75 -->
      <defs>
       <path d="M 8.203125 72.90625 
L 55.078125 72.90625 
L 55.078125 68.703125 
L 28.609375 0 
L 18.3125 0 
L 43.21875 64.59375 
L 8.203125 64.59375 
z
" id="DejaVuSans-37"/>
      </defs>
      <g transform="translate(19.954687 269.058639)scale(0.1 -0.1)">
       <use xlink:href="#DejaVuSans-2212"/>
       <use x="83.789062" xlink:href="#DejaVuSans-30"/>
       <use x="147.412109" xlink:href="#DejaVuSans-2e"/>
       <use x="179.199219" xlink:href="#DejaVuSans-37"/>
       <use x="242.822266" xlink:href="#DejaVuSans-35"/>
      </g>
     </g>
    </g>
    <g id="ytick_3">
     <g id="line2d_10">
      <g>
       <use style="stroke:#000000;stroke-width:0.8;" x="57.6" xlink:href="#m5ae5414471" y="235.015614"/>
      </g>
     </g>
     <g id="text_10">
      <!-- −0.50 -->
      <g transform="translate(19.954687 238.814832)scale(0.1 -0.1)">
       <use xlink:href="#DejaVuSans-2212"/>
       <use x="83.789062" xlink:href="#DejaVuSans-30"/>
       <use x="147.412109" xlink:href="#DejaVuSans-2e"/>
       <use x="179.199219" xlink:href="#DejaVuSans-35"/>
       <use x="242.822266" xlink:href="#DejaVuSans-30"/>
      </g>
     </g>
    </g>
    <g id="ytick_4">
     <g id="line2d_11">
      <g>
       <use style="stroke:#000000;stroke-width:0.8;" x="57.6" xlink:href="#m5ae5414471" y="204.771807"/>
      </g>
     </g>
     <g id="text_11">
      <!-- −0.25 -->
      <g transform="translate(19.954687 208.571026)scale(0.1 -0.1)">
       <use xlink:href="#DejaVuSans-2212"/>
       <use x="83.789062" xlink:href="#DejaVuSans-30"/>
       <use x="147.412109" xlink:href="#DejaVuSans-2e"/>
       <use x="179.199219" xlink:href="#DejaVuSans-32"/>
       <use x="242.822266" xlink:href="#DejaVuSans-35"/>
      </g>
     </g>
    </g>
    <g id="ytick_5">
     <g id="line2d_12">
      <g>
       <use style="stroke:#000000;stroke-width:0.8;" x="57.6" xlink:href="#m5ae5414471" y="174.528"/>
      </g>
     </g>
     <g id="text_12">
      <!-- 0.00 -->
      <g transform="translate(28.334375 178.327219)scale(0.1 -0.1)">
       <use xlink:href="#DejaVuSans-30"/>
       <use x="63.623047" xlink:href="#DejaVuSans-2e"/>
       <use x="95.410156" xlink:href="#DejaVuSans-30"/>
       <use x="159.033203" xlink:href="#DejaVuSans-30"/>
      </g>
     </g>
    </g>
    <g id="ytick_6">
     <g id="line2d_13">
      <g>
       <use style="stroke:#000000;stroke-width:0.8;" x="57.6" xlink:href="#m5ae5414471" y="144.284193"/>
      </g>
     </g>
     <g id="text_13">
      <!-- 0.25 -->
      <g transform="translate(28.334375 148.083412)scale(0.1 -0.1)">
       <use xlink:href="#DejaVuSans-30"/>
       <use x="63.623047" xlink:href="#DejaVuSans-2e"/>
       <use x="95.410156" xlink:href="#DejaVuSans-32"/>
       <use x="159.033203" xlink:href="#DejaVuSans-35"/>
      </g>
     </g>
    </g>
    <g id="ytick_7">
     <g id="line2d_14">
      <g>
       <use style="stroke:#000000;stroke-width:0.8;" x="57.6" xlink:href="#m5ae5414471" y="114.040386"/>
      </g>
     </g>
     <g id="text_14">
      <!-- 0.50 -->
      <g transform="translate(28.334375 117.839605)scale(0.1 -0.1)">
       <use xlink:href="#DejaVuSans-30"/>
       <use x="63.623047" xlink:href="#DejaVuSans-2e"/>
       <use x="95.410156" xlink:href="#DejaVuSans-35"/>
       <use x="159.033203" xlink:href="#DejaVuSans-30"/>
      </g>
     </g>
    </g>
    <g id="ytick_8">
     <g id="line2d_15">
      <g>
       <use style="stroke:#000000;stroke-width:0.8;" x="57.6" xlink:href="#m5ae5414471" y="83.796579"/>
      </g>
     </g>
     <g id="text_15">
      <!-- 0.75 -->
      <g transform="translate(28.334375 87.595798)scale(0.1 -0.1)">
       <use xlink:href="#DejaVuSans-30"/>
       <use x="63.623047" xlink:href="#DejaVuSans-2e"/>
       <use x="95.410156" xlink:href="#DejaVuSans-37"/>
       <use x="159.033203" xlink:href="#DejaVuSans-35"/>
      </g>
     </g>
    </g>
    <g id="ytick_9">
     <g id="line2d_16">
      <g>
       <use style="stroke:#000000;stroke-width:0.8;" x="57.6" xlink:href="#m5ae5414471" y="53.552773"/>
      </g>
     </g>
     <g id="text_16">
      <!-- 1.00 -->
      <g transform="translate(28.334375 57.351991)scale(0.1 -0.1)">
       <use xlink:href="#DejaVuSans-31"/>
       <use x="63.623047" xlink:href="#DejaVuSans-2e"/>
       <use x="95.410156" xlink:href="#DejaVuSans-30"/>
       <use x="159.033203" xlink:href="#DejaVuSans-30"/>
      </g>
     </g>
    </g>
   </g>
   <g id="line2d_17">
    <path clip-path="url(#pd684c4ff3a)" d="M 73.832727 174.528 
L 77.112066 166.855277 
L 80.391405 159.213449 
L 83.670744 151.633288 
L 86.950083 144.145315 
L 90.229421 136.779683 
L 93.50876 129.56605 
L 96.788099 122.533463 
L 100.067438 115.710239 
L 103.346777 109.123854 
L 106.626116 102.800828 
L 109.905455 96.766623 
L 113.184793 91.045535 
L 116.464132 85.660601 
L 119.743471 80.633505 
L 123.02281 75.984489 
L 126.302149 71.732273 
L 129.581488 67.893979 
L 132.860826 64.485062 
L 136.140165 61.51925 
L 139.419504 59.008484 
L 142.698843 56.962874 
L 145.978182 55.390658 
L 149.257521 54.298166 
L 152.53686 53.689796 
L 155.816198 53.568 
L 159.095537 53.933267 
L 162.374876 54.784126 
L 165.654215 56.117151 
L 168.933554 57.926976 
L 172.212893 60.206311 
L 175.492231 62.945979 
L 178.77157 66.134949 
L 182.050909 69.76038 
L 185.330248 73.807672 
L 188.609587 78.26053 
L 191.888926 83.101023 
L 195.168264 88.309661 
L 198.447603 93.865469 
L 201.726942 99.746076 
L 205.006281 105.927804 
L 208.28562 112.385761 
L 211.564959 119.093942 
L 214.844298 126.025337 
L 218.123636 133.152035 
L 221.402975 140.44534 
L 224.682314 147.875883 
L 227.961653 155.413745 
L 231.240992 163.028574 
L 234.520331 170.689706 
L 237.799669 178.366294 
L 241.079008 186.027426 
L 244.358347 193.642255 
L 247.637686 201.180117 
L 250.917025 208.61066 
L 254.196364 215.903965 
L 257.475702 223.030663 
L 260.755041 229.962058 
L 264.03438 236.670239 
L 267.313719 243.128196 
L 270.593058 249.309924 
L 273.872397 255.190531 
L 277.151736 260.746339 
L 280.431074 265.954977 
L 283.710413 270.79547 
L 286.989752 275.248328 
L 290.269091 279.29562 
L 293.54843 282.921051 
L 296.827769 286.110021 
L 300.107107 288.849689 
L 303.386446 291.129024 
L 306.665785 292.938849 
L 309.945124 294.271874 
L 313.224463 295.122733 
L 316.503802 295.488 
L 319.78314 295.366204 
L 323.062479 294.757834 
L 326.341818 293.665342 
L 329.621157 292.093126 
L 332.900496 290.047516 
L 336.179835 287.53675 
L 339.459174 284.570938 
L 342.738512 281.162021 
L 346.017851 277.323727 
L 349.29719 273.071511 
L 352.576529 268.422495 
L 355.855868 263.395399 
L 359.135207 258.010465 
L 362.414545 252.289377 
L 365.693884 246.255172 
L 368.973223 239.932146 
L 372.252562 233.345761 
L 375.531901 226.522537 
L 378.81124 219.48995 
L 382.090579 212.276317 
L 385.369917 204.910685 
L 388.649256 197.422712 
L 391.928595 189.842551 
L 395.207934 182.200723 
L 398.487273 174.528 
" style="fill:none;stroke:#1f77b4;stroke-linecap:square;stroke-width:1.5;"/>
   </g>
   <g id="line2d_18">
    <path clip-path="url(#pd684c4ff3a)" d="M 73.832727 174.528 
L 77.112066 159.213449 
L 80.391405 144.145315 
L 83.670744 129.56605 
L 86.950083 115.710239 
L 90.229421 102.800828 
L 93.50876 91.045535 
L 96.788099 80.633505 
L 100.067438 71.732273 
L 103.346777 64.485062 
L 106.626116 59.008484 
L 109.905455 55.390658 
L 113.184793 53.689796 
L 116.464132 53.933267 
L 119.743471 56.117151 
L 123.02281 60.206311 
L 126.302149 66.134949 
L 129.581488 73.807672 
L 132.860826 83.101023 
L 136.140165 93.865469 
L 139.419504 105.927804 
L 142.698843 119.093942 
L 145.978182 133.152035 
L 149.257521 147.875883 
L 152.53686 163.028574 
L 155.816198 178.366294 
L 159.095537 193.642255 
L 162.374876 208.61066 
L 165.654215 223.030663 
L 168.933554 236.670239 
L 172.212893 249.309924 
L 175.492231 260.746339 
L 178.77157 270.79547 
L 182.050909 279.29562 
L 185.330248 286.110021 
L 188.609587 291.129024 
L 191.888926 294.271874 
L 195.168264 295.488 
L 198.447603 294.757834 
L 201.726942 292.093126 
L 205.006281 287.53675 
L 208.28562 281.162021 
L 211.564959 273.071511 
L 214.844298 263.395399 
L 218.123636 252.289377 
L 221.402975 239.932146 
L 224.682314 226.522537 
L 227.961653 212.276317 
L 231.240992 197.422712 
L 234.520331 182.200723 
L 237.799669 166.855277 
L 241.079008 151.633288 
L 244.358347 136.779683 
L 247.637686 122.533463 
L 250.917025 109.123854 
L 254.196364 96.766623 
L 257.475702 85.660601 
L 260.755041 75.984489 
L 264.03438 67.893979 
L 267.313719 61.51925 
L 270.593058 56.962874 
L 273.872397 54.298166 
L 277.151736 53.568 
L 280.431074 54.784126 
L 283.710413 57.926976 
L 286.989752 62.945979 
L 290.269091 69.76038 
L 293.54843 78.26053 
L 296.827769 88.309661 
L 300.107107 99.746076 
L 303.386446 112.385761 
L 306.665785 126.025337 
L 309.945124 140.44534 
L 313.224463 155.413745 
L 316.503802 170.689706 
L 319.78314 186.027426 
L 323.062479 201.180117 
L 326.341818 215.903965 
L 329.621157 229.962058 
L 332.900496 243.128196 
L 336.179835 255.190531 
L 339.459174 265.954977 
L 342.738512 275.248328 
L 346.017851 282.921051 
L 349.29719 288.849689 
L 352.576529 292.938849 
L 355.855868 295.122733 
L 359.135207 295.366204 
L 362.414545 293.665342 
L 365.693884 290.047516 
L 368.973223 284.570938 
L 372.252562 277.323727 
L 375.531901 268.422495 
L 378.81124 258.010465 
L 382.090579 246.255172 
L 385.369917 233.345761 
L 388.649256 219.48995 
L 391.928595 204.910685 
L 395.207934 189.842551 
L 398.487273 174.528 
" style="fill:none;stroke:#ff7f0e;stroke-linecap:square;stroke-width:1.5;"/>
   </g>
   <g id="line2d_19">
    <path clip-path="url(#pd684c4ff3a)" d="M 73.832727 174.528 
L 77.112066 151.633288 
L 80.391405 129.56605 
L 83.670744 109.123854 
L 86.950083 91.045535 
L 90.229421 75.984489 
L 93.50876 64.485062 
L 96.788099 56.962874 
L 100.067438 53.689796 
L 103.346777 54.784126 
L 106.626116 60.206311 
L 109.905455 69.76038 
L 113.184793 83.101023 
L 116.464132 99.746076 
L 119.743471 119.093942 
L 123.02281 140.44534 
L 126.302149 163.028574 
L 129.581488 186.027426 
L 132.860826 208.61066 
L 136.140165 229.962058 
L 139.419504 249.309924 
L 142.698843 265.954977 
L 145.978182 279.29562 
L 149.257521 288.849689 
L 152.53686 294.271874 
L 155.816198 295.366204 
L 159.095537 292.093126 
L 162.374876 284.570938 
L 165.654215 273.071511 
L 168.933554 258.010465 
L 172.212893 239.932146 
L 175.492231 219.48995 
L 178.77157 197.422712 
L 182.050909 174.528 
L 185.330248 151.633288 
L 188.609587 129.56605 
L 191.888926 109.123854 
L 195.168264 91.045535 
L 198.447603 75.984489 
L 201.726942 64.485062 
L 205.006281 56.962874 
L 208.28562 53.689796 
L 211.564959 54.784126 
L 214.844298 60.206311 
L 218.123636 69.76038 
L 221.402975 83.101023 
L 224.682314 99.746076 
L 227.961653 119.093942 
L 231.240992 140.44534 
L 234.520331 163.028574 
L 237.799669 186.027426 
L 241.079008 208.61066 
L 244.358347 229.962058 
L 247.637686 249.309924 
L 250.917025 265.954977 
L 254.196364 279.29562 
L 257.475702 288.849689 
L 260.755041 294.271874 
L 264.03438 295.366204 
L 267.313719 292.093126 
L 270.593058 284.570938 
L 273.872397 273.071511 
L 277.151736 258.010465 
L 280.431074 239.932146 
L 283.710413 219.48995 
L 286.989752 197.422712 
L 290.269091 174.528 
L 293.54843 151.633288 
L 296.827769 129.56605 
L 300.107107 109.123854 
L 303.386446 91.045535 
L 306.665785 75.984489 
L 309.945124 64.485062 
L 313.224463 56.962874 
L 316.503802 53.689796 
L 319.78314 54.784126 
L 323.062479 60.206311 
L 326.341818 69.76038 
L 329.621157 83.101023 
L 332.900496 99.746076 
L 336.179835 119.093942 
L 339.459174 140.44534 
L 342.738512 163.028574 
L 346.017851 186.027426 
L 349.29719 208.61066 
L 352.576529 229.962058 
L 355.855868 249.309924 
L 359.135207 265.954977 
L 362.414545 279.29562 
L 365.693884 288.849689 
L 368.973223 294.271874 
L 372.252562 295.366204 
L 375.531901 292.093126 
L 378.81124 284.570938 
L 382.090579 273.071511 
L 385.369917 258.010465 
L 388.649256 239.932146 
L 391.928595 219.48995 
L 395.207934 197.422712 
L 398.487273 174.528 
" style="fill:none;stroke:#2ca02c;stroke-linecap:square;stroke-width:1.5;"/>
   </g>
   <g id="line2d_20">
    <path clip-path="url(#pd684c4ff3a)" d="M 73.832727 174.528 
L 77.112066 144.145315 
L 80.391405 115.710239 
L 83.670744 91.045535 
L 86.950083 71.732273 
L 90.229421 59.008484 
L 93.50876 53.689796 
L 96.788099 56.117151 
L 100.067438 66.134949 
L 103.346777 83.101023 
L 106.626116 105.927804 
L 109.905455 133.152035 
L 113.184793 163.028574 
L 116.464132 193.642255 
L 119.743471 223.030663 
L 123.02281 249.309924 
L 126.302149 270.79547 
L 129.581488 286.110021 
L 132.860826 294.271874 
L 136.140165 294.757834 
L 139.419504 287.53675 
L 142.698843 273.071511 
L 145.978182 252.289377 
L 149.257521 226.522537 
L 152.53686 197.422712 
L 155.816198 166.855277 
L 159.095537 136.779683 
L 162.374876 109.123854 
L 165.654215 85.660601 
L 168.933554 67.893979 
L 172.212893 56.962874 
L 175.492231 53.568 
L 178.77157 57.926976 
L 182.050909 69.76038 
L 185.330248 88.309661 
L 188.609587 112.385761 
L 191.888926 140.44534 
L 195.168264 170.689706 
L 198.447603 201.180117 
L 201.726942 229.962058 
L 205.006281 255.190531 
L 208.28562 275.248328 
L 211.564959 288.849689 
L 214.844298 295.122733 
L 218.123636 293.665342 
L 221.402975 284.570938 
L 224.682314 268.422495 
L 227.961653 246.255172 
L 231.240992 219.48995 
L 234.520331 189.842551 
L 237.799669 159.213449 
L 241.079008 129.56605 
L 244.358347 102.800828 
L 247.637686 80.633505 
L 250.917025 64.485062 
L 254.196364 55.390658 
L 257.475702 53.933267 
L 260.755041 60.206311 
L 264.03438 73.807672 
L 267.313719 93.865469 
L 270.593058 119.093942 
L 273.872397 147.875883 
L 277.151736 178.366294 
L 280.431074 208.61066 
L 283.710413 236.670239 
L 286.989752 260.746339 
L 290.269091 279.29562 
L 293.54843 291.129024 
L 296.827769 295.488 
L 300.107107 292.093126 
L 303.386446 281.162021 
L 306.665785 263.395399 
L 309.945124 239.932146 
L 313.224463 212.276317 
L 316.503802 182.200723 
L 319.78314 151.633288 
L 323.062479 122.533463 
L 326.341818 96.766623 
L 329.621157 75.984489 
L 332.900496 61.51925 
L 336.179835 54.298166 
L 339.459174 54.784126 
L 342.738512 62.945979 
L 346.017851 78.26053 
L 349.29719 99.746076 
L 352.576529 126.025337 
L 355.855868 155.413745 
L 359.135207 186.027426 
L 362.414545 215.903965 
L 365.693884 243.128196 
L 368.973223 265.954977 
L 372.252562 282.921051 
L 375.531901 292.938849 
L 378.81124 295.366204 
L 382.090579 290.047516 
L 385.369917 277.323727 
L 388.649256 258.010465 
L 391.928595 233.345761 
L 395.207934 204.910685 
L 398.487273 174.528 
" style="fill:none;stroke:#d62728;stroke-linecap:square;stroke-width:1.5;"/>
   </g>
   <g id="line2d_21">
    <path clip-path="url(#pd684c4ff3a)" d="M 73.832727 174.528 
L 77.112066 136.779683 
L 80.391405 102.800828 
L 83.670744 75.984489 
L 86.950083 59.008484 
L 90.229421 53.568 
L 93.50876 60.206311 
L 96.788099 78.26053 
L 100.067438 105.927804 
L 103.346777 140.44534 
L 106.626116 178.366294 
L 109.905455 215.903965 
L 113.184793 249.309924 
L 116.464132 275.248328 
L 119.743471 291.129024 
L 123.02281 295.366204 
L 126.302149 287.53675 
L 129.581488 268.422495 
L 132.860826 239.932146 
L 136.140165 204.910685 
L 139.419504 166.855277 
L 142.698843 129.56605 
L 145.978182 96.766623 
L 149.257521 71.732273 
L 152.53686 56.962874 
L 155.816198 53.933267 
L 159.095537 62.945979 
L 162.374876 83.101023 
L 165.654215 112.385761 
L 168.933554 147.875883 
L 172.212893 186.027426 
L 175.492231 223.030663 
L 178.77157 255.190531 
L 182.050909 279.29562 
L 185.330248 292.938849 
L 188.609587 294.757834 
L 191.888926 284.570938 
L 195.168264 263.395399 
L 198.447603 233.345761 
L 201.726942 197.422712 
L 205.006281 159.213449 
L 208.28562 122.533463 
L 211.564959 91.045535 
L 214.844298 67.893979 
L 218.123636 55.390658 
L 221.402975 54.784126 
L 224.682314 66.134949 
L 227.961653 88.309661 
L 231.240992 119.093942 
L 234.520331 155.413745 
L 237.799669 193.642255 
L 241.079008 229.962058 
L 244.358347 260.746339 
L 247.637686 282.921051 
L 250.917025 294.271874 
L 254.196364 293.665342 
L 257.475702 281.162021 
L 260.755041 258.010465 
L 264.03438 226.522537 
L 267.313719 189.842551 
L 270.593058 151.633288 
L 273.872397 115.710239 
L 277.151736 85.660601 
L 280.431074 64.485062 
L 283.710413 54.298166 
L 286.989752 56.117151 
L 290.269091 69.76038 
L 293.54843 93.865469 
L 296.827769 126.025337 
L 300.107107 163.028574 
L 303.386446 201.180117 
L 306.665785 236.670239 
L 309.945124 265.954977 
L 313.224463 286.110021 
L 316.503802 295.122733 
L 319.78314 292.093126 
L 323.062479 277.323727 
L 326.341818 252.289377 
L 329.621157 219.48995 
L 332.900496 182.200723 
L 336.179835 144.145315 
L 339.459174 109.123854 
L 342.738512 80.633505 
L 346.017851 61.51925 
L 349.29719 53.689796 
L 352.576529 57.926976 
L 355.855868 73.807672 
L 359.135207 99.746076 
L 362.414545 133.152035 
L 365.693884 170.689706 
L 368.973223 208.61066 
L 372.252562 243.128196 
L 375.531901 270.79547 
L 378.81124 288.849689 
L 382.090579 295.488 
L 385.369917 290.047516 
L 388.649256 273.071511 
L 391.928595 246.255172 
L 395.207934 212.276317 
L 398.487273 174.528 
" style="fill:none;stroke:#9467bd;stroke-linecap:square;stroke-width:1.5;"/>
   </g>
   <g id="patch_3">
    <path d="M 57.6 307.584 
L 57.6 41.472 
" style="fill:none;stroke:#000000;stroke-linecap:square;stroke-linejoin:miter;stroke-width:0.8;"/>
   </g>
   <g id="patch_4">
    <path d="M 414.72 307.584 
L 414.72 41.472 
" style="fill:none;stroke:#000000;stroke-linecap:square;stroke-linejoin:miter;stroke-width:0.8;"/>
   </g>
   <g id="patch_5">
    <path d="M 57.6 307.584 
L 414.72 307.584 
" style="fill:none;stroke:#000000;stroke-linecap:square;stroke-linejoin:miter;stroke-width:0.8;"/>
   </g>
   <g id="patch_6">
    <path d="M 57.6 41.472 
L 414.72 41.472 
" style="fill:none;stroke:#000000;stroke-linecap:square;stroke-linejoin:miter;stroke-width:0.8;"/>
   </g>
  </g>
 </g>
 <defs>
  <clipPath id="pd684c4ff3a">
   <rect height="266.112" width="357.12" x="57.6" y="41.472"/>
  </clipPath>
 </defs>
</svg>
