<?xml version="1.0" encoding="UTF-8" standalone="no"?>
<!-- Created with Inkscape (http://www.inkscape.org/) -->

<svg
   xmlns:ns0="http://www.iki.fi/pav/software/textext/"
   xmlns:dc="http://purl.org/dc/elements/1.1/"
   xmlns:cc="http://creativecommons.org/ns#"
   xmlns:rdf="http://www.w3.org/1999/02/22-rdf-syntax-ns#"
   xmlns:svg="http://www.w3.org/2000/svg"
   xmlns="http://www.w3.org/2000/svg"
   xmlns:xlink="http://www.w3.org/1999/xlink"
   xmlns:sodipodi="http://sodipodi.sourceforge.net/DTD/sodipodi-0.dtd"
   xmlns:inkscape="http://www.inkscape.org/namespaces/inkscape"
   width="210mm"
   height="297mm"
   id="svg2"
   version="1.1"
   inkscape:version="0.48.3.1 r9886"
   sodipodi:docname="v_w_r.svg">
  <sodipodi:namedview
     id="base"
     pagecolor="#ffffff"
     bordercolor="#666666"
     borderopacity="1.0"
     inkscape:pageopacity="0.0"
     inkscape:pageshadow="2"
     inkscape:zoom="0.22627417"
     inkscape:cx="206.53971"
     inkscape:cy="93.221997"
     inkscape:document-units="px"
     inkscape:current-layer="content"
     showgrid="true"
     showguides="false"
     inkscape:snap-global="true"
     inkscape:window-width="1871"
     inkscape:window-height="1056"
     inkscape:window-x="49"
     inkscape:window-y="24"
     inkscape:window-maximized="1">
    <inkscape:grid
       id="grid2985"
       type="xygrid" />
  </sodipodi:namedview>
  <defs
     id="defs4">
    <marker
       style="overflow:visible;"
       id="Arrow1Lend"
       refX="0.0"
       refY="0.0"
       orient="auto"
       inkscape:stockid="Arrow1Lend">
      <path
         transform="scale(0.8) rotate(180) translate(12.5,0)"
         style="fill-rule:evenodd;stroke:#000000;stroke-width:1.0pt;"
         d="M 0.0,0.0 L 5.0,-5.0 L -12.5,0.0 L 5.0,5.0 L 0.0,0.0 z "
         id="path3861" />
    </marker>
    <linearGradient
       id="linearGradient5244-4">
      <stop
         offset="0"
         id="stop5246-0" />
      <stop
         offset="1"
         stop-color="#c8c8c8"
         id="stop5248-6" />
    </linearGradient>
    <linearGradient
       x1="22.755"
       y1="143.83"
       gradientTransform="translate(-33.763,1.173)"
       x2="269.22"
       gradientUnits="userSpaceOnUse"
       y2="143.83"
       id="linearGradient5242-3">
      <stop
         offset="0"
         stop-color="#780000"
         id="stop5208-0" />
      <stop
         offset="1"
         stop-color="#f00000"
         id="stop5226-6" />
    </linearGradient>
    <linearGradient
       x1="182.83"
       y1="253.59"
       x2="194.41"
       gradientUnits="userSpaceOnUse"
       xlink:href="#linearGradient5244-4"
       y2="253.59"
       id="linearGradient5250-5" />
    <linearGradient
       x1="46.996"
       y1="5.2725"
       x2="58.427"
       gradientUnits="userSpaceOnUse"
       xlink:href="#linearGradient5244-4"
       y2="5.2725"
       id="linearGradient5345-2" />
    <linearGradient
       x1="109.66"
       y1="59.744"
       x2="119.82"
       gradientUnits="userSpaceOnUse"
       xlink:href="#linearGradient5244-4"
       y2="59.744"
       id="linearGradient5347-2" />
    <linearGradient
       id="linearGradient5244">
      <stop
         offset="0"
         id="stop5246" />
      <stop
         offset="1"
         stop-color="#c8c8c8"
         id="stop5248" />
    </linearGradient>
    <linearGradient
       x1="22.755"
       y1="143.83"
       gradientTransform="translate(-33.763,1.173)"
       x2="269.22"
       gradientUnits="userSpaceOnUse"
       y2="143.83"
       id="linearGradient5242">
      <stop
         offset="0"
         stop-color="#780000"
         id="stop5208" />
      <stop
         offset="1"
         stop-color="#f00000"
         id="stop5226" />
    </linearGradient>
    <linearGradient
       x1="182.83"
       y1="253.59"
       x2="194.41"
       gradientUnits="userSpaceOnUse"
       xlink:href="#linearGradient5244"
       y2="253.59"
       id="linearGradient5250" />
    <linearGradient
       x1="46.996"
       y1="5.2725"
       x2="58.427"
       gradientUnits="userSpaceOnUse"
       xlink:href="#linearGradient5244"
       y2="5.2725"
       id="linearGradient5345" />
    <linearGradient
       x1="109.66"
       y1="59.744"
       x2="119.82"
       gradientUnits="userSpaceOnUse"
       xlink:href="#linearGradient5244"
       y2="59.744"
       id="linearGradient5347" />
    <marker
       inkscape:stockid="Arrow1Lend"
       orient="auto"
       refY="0.0"
       refX="0.0"
       id="Arrow1Lend-4"
       style="overflow:visible;">
      <path
         id="path3868"
         d="M 0.0,0.0 L 5.0,-5.0 L -12.5,0.0 L 5.0,5.0 L 0.0,0.0 z "
         style="fill-rule:evenodd;stroke:#000000;stroke-width:1.0pt;"
         transform="scale(0.8) rotate(180) translate(12.5,0)" />
    </marker>
    <marker
       inkscape:stockid="Arrow1Mend"
       orient="auto"
       refY="0.0"
       refX="0.0"
       id="Arrow1Mend"
       style="overflow:visible;">
      <path
         id="path4061"
         d="M 0.0,0.0 L 5.0,-5.0 L -12.5,0.0 L 5.0,5.0 L 0.0,0.0 z "
         style="fill-rule:evenodd;stroke:#000000;stroke-width:1.0pt;"
         transform="scale(0.4) rotate(180) translate(10,0)" />
    </marker>
    <linearGradient
       y2="253.59"
       x2="194.41"
       y1="253.59"
       x1="182.83"
       gradientUnits="userSpaceOnUse"
       id="linearGradient6214"
       xlink:href="#linearGradient5244-4"
       inkscape:collect="always" />
    <linearGradient
       y2="143.83"
       x2="269.22"
       y1="143.83"
       x1="22.755"
       gradientTransform="translate(-33.763,1.173)"
       gradientUnits="userSpaceOnUse"
       id="linearGradient6216"
       xlink:href="#linearGradient5242-3"
       inkscape:collect="always" />
    <linearGradient
       y2="5.2725"
       x2="58.427"
       y1="5.2725"
       x1="46.996"
       gradientUnits="userSpaceOnUse"
       id="linearGradient6218"
       xlink:href="#linearGradient5244-4"
       inkscape:collect="always" />
    <linearGradient
       y2="59.744"
       x2="119.82"
       y1="59.744"
       x1="109.66"
       gradientUnits="userSpaceOnUse"
       id="linearGradient6220"
       xlink:href="#linearGradient5244-4"
       inkscape:collect="always" />
  </defs>
  <metadata
     id="metadata7">
    <rdf:RDF>
      <cc:Work
         rdf:about="">
        <dc:format>image/svg+xml</dc:format>
        <dc:type
           rdf:resource="http://purl.org/dc/dcmitype/StillImage" />
        <dc:title />
      </cc:Work>
    </rdf:RDF>
  </metadata>
  <g
     id="layer1"
     inkscape:groupmode="layer"
     inkscape:label="レイヤー 1">
    <g
       ns0:preamble=""
       ns0:text="\\[ m a = \\]"
       word-spacing="normal"
       letter-spacing="normal"
       font-size-adjust="none"
       font-stretch="normal"
       font-weight="normal"
       font-variant="normal"
       font-style="normal"
       stroke-miterlimit="10.433"
       xml:space="preserve"
       transform="matrix(5.7748204,0,0,-5.7748204,-2030.2364,3909.1645)"
       id="content"
       style="font-style:normal;font-variant:normal;font-weight:normal;font-stretch:normal;letter-spacing:normal;word-spacing:normal;text-anchor:start;fill:none;stroke:#000000;stroke-linecap:butt;stroke-linejoin:miter;stroke-miterlimit:10.43299961;stroke-opacity:1;stroke-dasharray:none;stroke-dashoffset:0">



































<g
   transform="matrix(0.28656598,-0.51339428,-0.51339428,-0.28656598,464.36324,710.98011)"
   id="g3855"><path
     inkscape:connector-curvature="0"
     id="path5190"
     d="m 193.91,253.59 a 5.2925,16.93564 0 1 1 -10.585,0 5.2925,16.93564 0 1 1 10.585,0 z"
     transform="matrix(0.95372,-0.30071,0.30071,0.95372,-84.648,87.934)"
     style="fill:url(#linearGradient6214);stroke-opacity:0" /><path
     inkscape:connector-curvature="0"
     id="path4670"
     d="m 2.6479,77.786 196.87,-58.851 c 16.978,13.592 41.13,59.408 38.952,91.028 -11.998,62.379 -32.462,98.508 -50.383,154.11 -6.6603,7.867 -24.268,11.299 -37.681,10.161 -44.06,-31.35 -89.89,-53 -133.79,-97.8 -18.586,-18.96 -17.662,-74.13 -13.972,-98.654 z"
     style="fill:url(#linearGradient6216);stroke-opacity:0" /><path
     style="fill:#ff0000"
     inkscape:connector-curvature="0"
     id="path4666"
     d="m 298.42,38.085 a 112.13,24.556 0 1 1 -224.25,0 112.13,24.556 0 1 1 224.25,0 z"
     transform="matrix(0.89026,-0.24751,0.15742,1.0769,-69.487,56.418)" /><g
     id="g5340"
     transform="translate(-33.763,1.173)"><path
       inkscape:connector-curvature="0"
       id="path5256-4"
       d="m 58.427,5.2725 c 0,2.4552 -2.559,4.4456 -5.7157,4.4456 -3.1567,0 -5.7157,-1.9903 -5.7157,-4.4456 0,-2.4552 2.559,-4.4456 5.7157,-4.4456 3.1567,0 5.7157,1.9903 5.7157,4.4456 z"
       transform="matrix(0.85222,-0.25406,0.16237,0.54467,87.987,57.591)"
       style="fill:url(#linearGradient6218)" /><rect
       id="rect5254"
       transform="matrix(0.95832257,-0.28568837,0.28568837,0.95832257,0,0)"
       height="47.418999"
       width="10.161"
       y="36.035"
       x="109.66"
       style="fill:url(#linearGradient6220)" /><path
       style="fill:#999999"
       inkscape:connector-curvature="0"
       id="path5256"
       d="m 58.427,5.2725 c 0,2.4552 -2.559,4.4456 -5.7157,4.4456 -3.1567,0 -5.7157,-1.9903 -5.7157,-4.4456 0,-2.4552 2.559,-4.4456 5.7157,-4.4456 3.1567,0 5.7157,1.9903 5.7157,4.4456 z"
       transform="matrix(0.85222,-0.25406,0.16237,0.54467,74.422,12.171)" /></g></g><path
   inkscape:connector-curvature="0"
   id="path6233"
   d="m 341.17709,512.01632 c 187.0188,193.94543 187.0188,193.94543 187.0188,193.94543"
   style="fill:none;stroke:#000000;stroke-width:0.69266224;stroke-linecap:butt;stroke-linejoin:miter;stroke-miterlimit:10.43299961;stroke-opacity:1;stroke-dasharray:none;marker-end:url(#Arrow1Lend-4)" /><path
   transform="matrix(0.17316556,0,0,-0.17316556,542.04907,704.63913)"
   d="m -720,672.36218 c 0,11.0457 -8.95431,20 -20,20 -11.04569,0 -20,-8.9543 -20,-20 0,-11.04569 8.95431,-20 20,-20 11.04569,0 20,8.95431 20,20 z"
   sodipodi:ry="20"
   sodipodi:rx="20"
   sodipodi:cy="672.36218"
   sodipodi:cx="-740"
   id="path6947"
   style="fill:#ffeeaa;fill-opacity:1;stroke:#ff0000;stroke-width:4;stroke-linejoin:round;stroke-miterlimit:10.43299961;stroke-opacity:1;stroke-dasharray:none;stroke-dashoffset:0"
   sodipodi:type="arc" /><g
   transform="translate(256.28497,17.316556)"
   id="g6955"><rect
   style="fill:#ffeeaa;fill-opacity:1;stroke:#ff0000;stroke-width:4;stroke-linejoin:round;stroke-miterlimit:10.43299961;stroke-opacity:1;stroke-dasharray:none;stroke-dashoffset:0"
   id="rect6953"
   width="400"
   height="120"
   x="-1080"
   y="652.36218"
   transform="matrix(0.17316556,0,0,-0.17316556,351.56702,676.93265)" /><text
   xml:space="preserve"
   style="font-size:6.92662239px;font-style:normal;font-weight:normal;line-height:125%;letter-spacing:0px;word-spacing:0px;fill:#000000;fill-opacity:1;stroke:none;font-family:Sans"
   x="171.47484"
   y="-550.11273"
   id="text6949"
   sodipodi:linespacing="125%"
   transform="scale(1,-1)"><tspan
     sodipodi:role="line"
     id="tspan6951"
     x="171.47484"
     y="-550.11273"
     style="font-size:11.08259583px">ある基準点</tspan></text>









</g><path
   sodipodi:type="arc"
   style="fill:#ffeeaa;fill-opacity:1;stroke:#ff0000;stroke-width:4;stroke-linejoin:round;stroke-miterlimit:10.43299961;stroke-opacity:1;stroke-dasharray:none;stroke-dashoffset:0"
   id="path6971"
   sodipodi:cx="-740"
   sodipodi:cy="672.36218"
   sodipodi:rx="20"
   sodipodi:ry="20"
   d="m -720,672.36218 c 0,11.0457 -8.95431,20 -20,20 -11.04569,0 -20,-8.9543 -20,-20 0,-11.04569 8.95431,-20 20,-20 11.04569,0 20,8.95431 20,20 z"
   transform="matrix(0.17316556,0,0,-0.17316556,552.439,794.68519)" /><text
   xml:space="preserve"
   style="font-size:6.92662239px;font-style:normal;font-weight:normal;line-height:125%;letter-spacing:0px;word-spacing:0px;fill:#000000;fill-opacity:1;stroke:none;font-family:Sans"
   x="545.51245"
   y="-709.42505"
   id="text7539"
   sodipodi:linespacing="125%"
   transform="scale(1,-1)"><tspan
     sodipodi:role="line"
     id="tspan7541"
     x="545.51245"
     y="-709.42505"
     style="font-size:11.08259583px">角速度ベクトル</tspan></text>









<path
   inkscape:connector-curvature="0"
   id="path7550"
   d="m 413.90662,584.74585 10.38993,90.0461"
   style="fill:none;stroke:#ffff00;stroke-width:2.12083626;stroke-linecap:butt;stroke-linejoin:miter;stroke-miterlimit:10.43299961;stroke-opacity:1;stroke-dasharray:none;marker-end:url(#Arrow1Mend)" /><rect
   style="fill:#ffff00;fill-opacity:1;stroke:#ff0000;stroke-width:0.79919243;stroke-linejoin:round;stroke-miterlimit:10.43299961;stroke-opacity:1;stroke-dasharray:none;stroke-dashoffset:0"
   id="rect7740"
   width="49.179031"
   height="20.779863"
   x="358.49365"
   y="-633.23224"
   transform="scale(1,-1)" /><path
   transform="matrix(0.17316556,0,0,-0.17316556,351.56702,676.93265)"
   inkscape:connector-curvature="0"
   id="path7748"
   d="M 420,-7.6378174 520,252.36218"
   style="fill:none;stroke:#00ffff;stroke-width:9.99999992000000049;stroke-linecap:butt;stroke-linejoin:miter;stroke-opacity:1;stroke-miterlimit:10.43299960999999954;stroke-dasharray:none;marker-end:url(#Arrow1Mend)" /><rect
   transform="scale(1,-1)"
   y="-730.20483"
   x="417.36987"
   height="20.779867"
   width="100.43605"
   id="rect7948"
   style="fill:#00ffff;fill-opacity:1;stroke:#ff0000;stroke-width:0.65939486;stroke-linejoin:round;stroke-miterlimit:10.43299961;stroke-opacity:1;stroke-dasharray:none;stroke-dashoffset:0" />

<path
   transform="matrix(0.17316556,0,0,-0.17316556,351.56702,659.61609)"
   d="m 400,-167.63782 c 0,33.13709 -26.86292,60 -60,60 -33.13708,0 -60,-26.86291 -60,-60 0,-33.13708 26.86292,-60 60,-60 33.13708,0 60,26.86292 60,60 z"
   sodipodi:ry="60"
   sodipodi:rx="60"
   sodipodi:cy="-167.63782"
   sodipodi:cx="340"
   id="path7954"
   style="fill:#ffff00;fill-opacity:1;stroke:#ff0000;stroke-width:3;stroke-linejoin:round;stroke-miterlimit:10.43299961;stroke-opacity:1;stroke-dasharray:none;stroke-dashoffset:0"
   sodipodi:type="arc" /><path
   inkscape:connector-curvature="0"
   id="path7961"
   d="m 434.68649,654.01208 27.70649,55.41298"
   style="fill:none;stroke:#000000;stroke-width:0.18512177px;stroke-linecap:butt;stroke-linejoin:miter;stroke-opacity:1" /><path
   sodipodi:nodetypes="caaac"
   inkscape:connector-curvature="0"
   id="path3043"
   d="m 510.87933,695.57182 c 0,0 -15.61706,12.08942 -20.77986,6.92662 -5.1628,-5.1628 1.76382,-15.61707 6.92662,-20.77987 5.1628,-5.1628 14.85674,-11.19577 20.77987,-6.92662 3.74611,2.70004 0,13.85324 0,13.85324"
   style="fill:none;stroke:#000000;stroke-width:0.51949668;stroke-linecap:butt;stroke-linejoin:miter;stroke-miterlimit:10.43299961;stroke-opacity:1;stroke-dasharray:none;marker-end:url(#Arrow1Lend-4)" /><g
   style="font-style:normal;font-variant:normal;font-weight:normal;font-stretch:normal;letter-spacing:normal;word-spacing:normal;text-anchor:start;fill:none;stroke:#000000;stroke-linecap:butt;stroke-linejoin:miter;stroke-miterlimit:10.43299961;stroke-opacity:1;stroke-dasharray:none;stroke-dashoffset:0"
   ns0:preamble=""
   ns0:text="$w$"
   word-spacing="normal"
   letter-spacing="normal"
   font-size-adjust="none"
   font-stretch="normal"
   font-weight="normal"
   font-variant="normal"
   font-style="normal"
   stroke-miterlimit="10.433"
   xml:space="preserve"
   transform="matrix(1.1629167,0,0,1.1629167,274.95477,-55.142477)"
   id="g4480">
<path
   id="path4482"
   d="m 228.03,660.6 0,0.02 0.01,0.03 0,0.02 0.01,0.02 0.01,0.02 0,0.03 0.01,0.05 0.02,0.05 0.01,0.05 0.01,0.05 0.01,0.05 0.01,0.02 0,0.02 0.01,0.02 0,0.03 0.01,0.02 0,0.02 0.01,0.02 0,0.01 0.01,0.02 0,0.02 0,0.01 0,0.01 0.01,0.01 0,0.01 0,0.01 0,0.01 c 0,0.18 -0.14,0.27 -0.29,0.27 -0.12,0 -0.3,-0.08 -0.37,-0.28 -0.03,-0.07 -0.5,-1.97 -0.57,-2.23 -0.07,-0.29 -0.09,-0.47 -0.09,-0.65 0,-0.11 0,-0.13 0.01,-0.18 -0.22,-0.53 -0.52,-0.84 -0.91,-0.84 -0.8,0 -0.8,0.74 -0.8,0.91 0,0.32 0.05,0.7 0.52,1.92 0.11,0.3 0.17,0.44 0.17,0.64 0,0.45 -0.33,0.82 -0.82,0.82 -0.94,0 -1.31,-1.45 -1.31,-1.53 0,-0.1 0.1,-0.1 0.12,-0.1 0.1,0 0.11,0.02 0.16,0.17 0.27,0.93 0.66,1.24 1,1.24 0.09,0 0.25,-0.01 0.25,-0.33 0,-0.25 -0.11,-0.53 -0.18,-0.7 -0.43,-1.17 -0.55,-1.62 -0.55,-2 0,-0.91 0.66,-1.25 1.41,-1.25 0.17,0 0.64,0 1.03,0.69 0.26,-0.64 0.95,-0.69 1.25,-0.69 0.74,0 1.18,0.62 1.44,1.22 0.34,0.77 0.66,2.1 0.66,2.58 0,0.55 -0.27,0.7 -0.44,0.7 -0.25,0 -0.5,-0.26 -0.5,-0.48 0,-0.13 0.06,-0.19 0.15,-0.27 0.11,-0.11 0.36,-0.37 0.36,-0.84 0,-0.34 -0.29,-1.32 -0.55,-1.82 -0.26,-0.53 -0.6,-0.88 -1.09,-0.88 -0.47,0 -0.74,0.3 -0.74,0.87 0,0.28 0.07,0.58 0.11,0.72 z"
   inkscape:connector-curvature="0"
   style="fill:#000000;stroke-width:0" />
</g>
<g
   id="g3131"
   transform="matrix(1.1629167,0,0,1.1629167,101.78927,-145.18855)"
   xml:space="preserve"
   stroke-miterlimit="10.433"
   font-style="normal"
   font-variant="normal"
   font-weight="normal"
   font-stretch="normal"
   font-size-adjust="none"
   letter-spacing="normal"
   word-spacing="normal"
   ns0:text="$x_i - x_G$"
   ns0:preamble=""
   style="font-style:normal;font-variant:normal;font-weight:normal;font-stretch:normal;letter-spacing:normal;word-spacing:normal;text-anchor:start;fill:none;stroke:#000000;stroke-linecap:butt;stroke-linejoin:miter;stroke-miterlimit:10.43299961;stroke-opacity:1;stroke-dasharray:none;stroke-dashoffset:0">
<path
   style="fill:#000000;stroke-width:0"
   inkscape:connector-curvature="0"
   d="m 226.76,660.23 0,0.03 0.01,0.03 0.01,0.03 0.01,0.04 0.01,0.04 0.01,0.04 0.01,0.04 0.02,0.05 0.01,0.04 0.02,0.05 0.02,0.05 0.02,0.05 0.02,0.05 0.03,0.05 0.02,0.05 0.03,0.05 0.03,0.05 0.03,0.04 0.03,0.05 0.04,0.04 0.04,0.05 0.04,0.04 0.04,0.04 0.04,0.03 0.05,0.03 0.05,0.03 0.02,0.01 0.03,0.02 0.02,0.01 0.03,0.01 0.03,0.01 0.03,0 0.03,0.01 0.02,0.01 0.04,0 0.03,0 0.03,0.01 0.03,0 c 0.05,0 0.29,0 0.5,-0.13 -0.28,-0.05 -0.48,-0.3 -0.48,-0.54 0,-0.16 0.11,-0.35 0.38,-0.35 0.22,0 0.54,0.18 0.54,0.58 0,0.52 -0.59,0.66 -0.93,0.66 -0.58,0 -0.93,-0.53 -1.04,-0.76 -0.25,0.66 -0.79,0.76 -1.08,0.76 -1.03,0 -1.6,-1.29 -1.6,-1.53 0,-0.1 0.1,-0.1 0.12,-0.1 0.08,0 0.11,0.02 0.13,0.11 0.34,1.05 0.99,1.3 1.33,1.3 0.19,0 0.54,-0.09 0.54,-0.67 0,-0.31 -0.17,-0.97 -0.54,-2.36 -0.16,-0.62 -0.51,-1.04 -0.94,-1.04 -0.06,0 -0.29,0 -0.5,0.13 0.25,0.05 0.47,0.26 0.47,0.54 0,0.27 -0.22,0.35 -0.37,0.35 -0.3,0 -0.55,-0.26 -0.55,-0.58 0,-0.46 0.5,-0.65 0.94,-0.65 0.65,0 1.01,0.69 1.04,0.75 0.12,-0.37 0.48,-0.75 1.07,-0.75 1.03,0 1.6,1.28 1.6,1.53 0,0.1 -0.09,0.1 -0.12,0.1 -0.09,0 -0.11,-0.04 -0.13,-0.11 -0.33,-1.07 -1.01,-1.31 -1.33,-1.31 -0.38,0 -0.54,0.32 -0.54,0.66 0,0.22 0.06,0.44 0.17,0.87 z"
   id="path3133" />
<path
   style="fill:#000000;stroke-width:0"
   inkscape:connector-curvature="0"
   d="m 231.38,660.09 0,0.01 0,0.01 0,0.01 0,0.01 0,0.01 -0.01,0.01 0,0.01 0,0.02 -0.01,0.01 0,0.01 -0.01,0.01 0,0.01 -0.01,0.01 -0.01,0.01 -0.01,0.01 0,0.01 -0.01,0.01 -0.01,0.01 -0.01,0.01 -0.01,0.01 -0.01,0 -0.02,0.01 -0.01,0.01 -0.01,0.01 -0.01,0 -0.02,0.01 -0.01,0 -0.02,0 -0.01,0.01 -0.02,0 -0.02,0 -0.02,0 c -0.18,0 -0.39,-0.18 -0.39,-0.38 0,-0.12 0.09,-0.26 0.28,-0.26 0.2,0 0.39,0.19 0.39,0.38 z"
   id="path3135" />
<path
   style="fill:#000000;stroke-width:0"
   inkscape:connector-curvature="0"
   d="m 229.96,656.55 0,-0.01 -0.01,-0.02 -0.01,-0.03 -0.01,-0.02 0,-0.02 -0.01,-0.01 0,-0.02 0,-0.02 -0.01,-0.02 0,-0.02 -0.01,-0.01 0,-0.01 0,-0.01 0,-0.01 0,-0.01 0,-0.02 0,-0.01 0,-0.01 0,-0.01 c 0,-0.32 0.28,-0.59 0.66,-0.59 0.7,0 1,0.96 1,1.06 0,0.1 -0.09,0.1 -0.11,0.1 -0.1,0 -0.1,-0.05 -0.13,-0.12 -0.16,-0.56 -0.47,-0.84 -0.74,-0.84 -0.14,0 -0.17,0.09 -0.17,0.24 0,0.16 0.05,0.29 0.11,0.44 0.07,0.19 0.14,0.38 0.22,0.56 0.06,0.17 0.31,0.8 0.34,0.88 0.02,0.07 0.04,0.16 0.04,0.23 0,0.32 -0.27,0.59 -0.66,0.59 -0.69,0 -1.01,-0.95 -1.01,-1.07 0,-0.09 0.1,-0.09 0.12,-0.09 0.1,0 0.11,0.04 0.13,0.11 0.18,0.6 0.48,0.85 0.74,0.85 0.11,0 0.18,-0.05 0.18,-0.24 0,-0.16 -0.05,-0.27 -0.22,-0.7 z"
   id="path3137" />
<path
   style="fill:#000000;stroke-width:0"
   inkscape:connector-curvature="0"
   d="m 241.21,659.52 0.04,0 0.03,0 0.03,0 0.01,0 0.02,0 0.01,0 0.02,0.01 0.01,0 0.02,0 0.01,0 0.02,0.01 0.01,0 0.01,0 0.01,0.01 0.02,0.01 0.01,0 0.01,0.01 0.01,0.01 0.01,0 0,0.01 0.01,0.01 0,0.01 0.01,0 0,0.01 0,0.01 0.01,0 0,0.01 0,0.01 0,0 0.01,0.01 0,0.01 0,0.01 0,0 0,0.01 0,0.01 0,0.01 0,0.01 c 0,0.2 -0.18,0.2 -0.35,0.2 h -5.38 c -0.17,0 -0.35,0 -0.35,-0.2 0,-0.2 0.18,-0.2 0.35,-0.2 z"
   id="path3139" />
<path
   style="fill:#000000;stroke-width:0"
   inkscape:connector-curvature="0"
   d="m 247.94,660.23 0.01,0.03 0.01,0.03 0,0.03 0.01,0.04 0.01,0.04 0.02,0.04 0.01,0.04 0.01,0.05 0.02,0.04 0.02,0.05 0.02,0.05 0.02,0.05 0.02,0.05 0.02,0.05 0.03,0.05 0.03,0.05 0.03,0.05 0.03,0.04 0.03,0.05 0.04,0.04 0.03,0.05 0.04,0.04 0.04,0.04 0.05,0.03 0.04,0.03 0.05,0.03 0.03,0.01 0.02,0.02 0.03,0.01 0.03,0.01 0.02,0.01 0.03,0 0.03,0.01 0.03,0.01 0.03,0 0.03,0 0.03,0.01 0.04,0 c 0.05,0 0.29,0 0.5,-0.13 -0.28,-0.05 -0.48,-0.3 -0.48,-0.54 0,-0.16 0.11,-0.35 0.37,-0.35 0.22,0 0.54,0.18 0.54,0.58 0,0.52 -0.59,0.66 -0.92,0.66 -0.58,0 -0.93,-0.53 -1.05,-0.76 -0.25,0.66 -0.78,0.76 -1.07,0.76 -1.04,0 -1.6,-1.29 -1.6,-1.53 0,-0.1 0.1,-0.1 0.12,-0.1 0.07,0 0.11,0.02 0.12,0.11 0.34,1.05 1,1.3 1.34,1.3 0.19,0 0.54,-0.09 0.54,-0.67 0,-0.31 -0.17,-0.97 -0.54,-2.36 -0.16,-0.62 -0.51,-1.04 -0.95,-1.04 -0.06,0 -0.29,0 -0.5,0.13 0.25,0.05 0.47,0.26 0.47,0.54 0,0.27 -0.22,0.35 -0.36,0.35 -0.3,0 -0.55,-0.26 -0.55,-0.58 0,-0.46 0.49,-0.65 0.93,-0.65 0.66,0 1.02,0.69 1.05,0.75 0.12,-0.37 0.48,-0.75 1.07,-0.75 1.03,0 1.59,1.28 1.59,1.53 0,0.1 -0.09,0.1 -0.12,0.1 -0.08,0 -0.11,-0.04 -0.13,-0.11 -0.32,-1.07 -1,-1.31 -1.32,-1.31 -0.39,0 -0.55,0.32 -0.55,0.66 0,0.22 0.06,0.44 0.17,0.87 z"
   id="path3141" />
<path
   style="fill:#000000;stroke-width:0"
   inkscape:connector-curvature="0"
   d="m 256.18,660.54 0,0 0,0.01 0,0 0,0 0,0.01 0,0 0,0 0,0.01 0,0 0,0.01 0,0 -0.01,0 0,0.01 0,0 0,0 -0.01,0.01 0,0 0,0 0,0.01 -0.01,0 0,0 0,0.01 -0.01,0 0,0 -0.01,0 0,0 -0.01,0.01 0,0 -0.01,0 0,0 0,0 0,0 -0.01,0 0,0 0,0 -0.01,0 c -0.04,0 -0.06,-0.02 -0.12,-0.08 l -0.51,-0.54 c -0.06,0.08 -0.45,0.62 -1.31,0.62 -1.69,0 -3.35,-1.5 -3.35,-3.07 0,-1.08 0.82,-1.96 2.16,-1.96 0.61,0 1.26,0.16 1.62,0.55 0.07,-0.15 0.26,-0.4 0.34,-0.4 0.07,0 0.08,0.03 0.12,0.17 l 0.13,0.54 c 0.03,0.12 0.13,0.54 0.15,0.62 0.08,0.32 0.09,0.32 0.5,0.33 0.05,0 0.16,0 0.16,0.15 0,0.06 -0.05,0.1 -0.11,0.1 -0.23,0 -0.52,-0.03 -0.77,-0.03 -0.17,0 -0.4,0 -0.57,0.01 -0.18,0.01 -0.38,0.02 -0.55,0.02 -0.05,0 -0.16,0 -0.16,-0.15 0,-0.1 0.08,-0.1 0.25,-0.1 0.14,0 0.28,0 0.41,-0.01 0.22,-0.02 0.23,-0.05 0.23,-0.14 0,-0.02 0,-0.04 -0.05,-0.22 -0.05,-0.19 -0.13,-0.51 -0.15,-0.58 -0.21,-0.42 -0.85,-0.61 -1.4,-0.61 -0.69,0 -1.61,0.34 -1.61,1.51 0,0.74 0.35,1.68 0.87,2.2 0.72,0.71 1.46,0.82 1.85,0.82 0.81,0 1.28,-0.59 1.28,-1.36 0,-0.2 -0.02,-0.25 -0.02,-0.29 0,-0.09 0.09,-0.09 0.13,-0.09 0.11,0 0.11,0.02 0.14,0.15 z"
   id="path3143" />
</g>
<g
   style="font-style:normal;font-variant:normal;font-weight:normal;font-stretch:normal;letter-spacing:normal;word-spacing:normal;text-anchor:start;fill:none;stroke:#000000;stroke-linecap:butt;stroke-linejoin:miter;stroke-miterlimit:10.43299961;stroke-opacity:1;stroke-dasharray:none;stroke-dashoffset:0"
   ns0:preamble=""
   ns0:text="$v_i = w \\times (x_i - x_G)$"
   word-spacing="normal"
   letter-spacing="normal"
   font-size-adjust="none"
   font-stretch="normal"
   font-weight="normal"
   font-variant="normal"
   font-style="normal"
   stroke-miterlimit="10.433"
   xml:space="preserve"
   transform="matrix(1.1629167,0,0,1.1629167,160.66554,-44.752543)"
   id="g3296">
<path
   id="path3298"
   d="m 228.09,660.93 0,0.02 0,0.03 0,0.02 0,0.03 -0.01,0.02 0,0.02 0,0.02 0,0.02 -0.01,0.04 -0.01,0.04 -0.01,0.04 -0.01,0.04 -0.01,0.03 -0.01,0.03 -0.01,0.03 -0.01,0.03 -0.02,0.02 -0.01,0.03 -0.02,0.02 -0.01,0.02 -0.02,0.02 -0.02,0.02 -0.01,0.01 -0.02,0.02 -0.02,0.01 -0.02,0.01 -0.02,0.01 -0.02,0.01 -0.01,0.01 -0.02,0.01 -0.02,0 -0.02,0.01 -0.02,0 -0.01,0 -0.02,0.01 -0.02,0 c -0.25,0 -0.49,-0.26 -0.49,-0.48 0,-0.13 0.05,-0.19 0.16,-0.3 0.21,-0.2 0.34,-0.46 0.34,-0.81 0,-0.42 -0.61,-2.7 -1.77,-2.7 -0.51,0 -0.74,0.35 -0.74,0.87 0,0.56 0.27,1.28 0.58,2.1 0.07,0.17 0.12,0.31 0.12,0.5 0,0.45 -0.32,0.82 -0.82,0.82 -0.93,0 -1.31,-1.45 -1.31,-1.53 0,-0.1 0.1,-0.1 0.12,-0.1 0.1,0 0.11,0.02 0.16,0.17 0.29,1.01 0.71,1.24 1,1.24 0.08,0 0.25,0 0.25,-0.32 0,-0.25 -0.1,-0.52 -0.17,-0.7 -0.43,-1.15 -0.56,-1.61 -0.56,-2.03 0,-1.08 0.87,-1.23 1.33,-1.23 1.67,0 2.24,3.28 2.24,3.8 z"
   inkscape:connector-curvature="0"
   style="fill:#000000;stroke-width:0" />
<path
   id="path3300"
   d="m 230.52,660.09 0,0.01 0,0.01 -0.01,0.01 0,0.01 0,0.01 0,0.01 -0.01,0.01 0,0.02 0,0.01 -0.01,0.01 0,0.01 -0.01,0.01 -0.01,0.01 0,0.01 -0.01,0.01 -0.01,0.01 -0.01,0.01 -0.01,0.01 -0.01,0.01 -0.01,0.01 -0.01,0 -0.01,0.01 -0.01,0.01 -0.02,0.01 -0.01,0 -0.01,0.01 -0.02,0 -0.01,0 -0.02,0.01 -0.02,0 -0.01,0 -0.02,0 c -0.19,0 -0.39,-0.18 -0.39,-0.38 0,-0.12 0.09,-0.26 0.28,-0.26 0.2,0 0.39,0.19 0.39,0.38 z"
   inkscape:connector-curvature="0"
   style="fill:#000000;stroke-width:0" />
<path
   id="path3302"
   d="m 229.1,656.55 -0.01,-0.01 0,-0.02 -0.01,-0.03 -0.01,-0.02 -0.01,-0.02 0,-0.01 -0.01,-0.02 0,-0.02 0,-0.02 -0.01,-0.02 0,-0.01 0,-0.01 0,-0.01 0,-0.01 0,-0.01 -0.01,-0.02 0,-0.01 0,-0.01 0,-0.01 c 0,-0.32 0.28,-0.59 0.67,-0.59 0.69,0 1,0.96 1,1.06 0,0.1 -0.09,0.1 -0.11,0.1 -0.1,0 -0.11,-0.05 -0.13,-0.12 -0.17,-0.56 -0.47,-0.84 -0.74,-0.84 -0.14,0 -0.18,0.09 -0.18,0.24 0,0.16 0.05,0.29 0.11,0.44 0.07,0.19 0.15,0.38 0.23,0.56 0.06,0.17 0.31,0.8 0.34,0.88 0.02,0.07 0.04,0.16 0.04,0.23 0,0.32 -0.28,0.59 -0.66,0.59 -0.69,0 -1.01,-0.95 -1.01,-1.07 0,-0.09 0.1,-0.09 0.12,-0.09 0.09,0 0.1,0.04 0.12,0.11 0.18,0.6 0.49,0.85 0.75,0.85 0.11,0 0.17,-0.05 0.17,-0.24 0,-0.16 -0.04,-0.27 -0.21,-0.7 z"
   inkscape:connector-curvature="0"
   style="fill:#000000;stroke-width:0" />
<path
   id="path3304"
   d="m 241.18,660.48 0.03,0 0.03,0 0.03,0 0.01,0.01 0.02,0 0.01,0 0.01,0 0.02,0 0.01,0 0.02,0.01 0.01,0 0.01,0 0.01,0.01 0.02,0 0.01,0.01 0.01,0 0.01,0.01 0.01,0.01 0.01,0.01 0.01,0.01 0.01,0.01 0,0 0,0.01 0.01,0 0,0.01 0,0.01 0.01,0 0,0.01 0,0.01 0,0 0,0.01 0,0.01 0.01,0.01 0,0.01 0,0 0,0.01 0,0.01 c 0,0.2 -0.19,0.2 -0.33,0.2 h -5.96 c -0.14,0 -0.33,0 -0.33,-0.2 0,-0.2 0.19,-0.2 0.34,-0.2 z"
   inkscape:connector-curvature="0"
   style="fill:#000000;stroke-width:0" />
<path
   id="path3306"
   d="m 241.19,658.56 0.01,0 0.02,0 0.02,0 0.03,0 0.02,0 0.01,0 0.01,0 0.02,0 0.01,0 0.01,0.01 0.02,0 0.01,0 0.01,0.01 0.02,0 0.01,0.01 0.01,0 0.01,0.01 0.01,0 0.01,0.01 0.01,0.01 0.01,0.01 0,0 0.01,0.01 0,0.01 0,0 0.01,0.01 0,0 0,0.01 0.01,0.01 0,0 0,0.01 0,0.01 0,0 0,0.01 0.01,0.01 0,0.01 0,0.01 0,0.01 0,0.01 c 0,0.19 -0.19,0.19 -0.34,0.19 h -5.94 c -0.15,0 -0.34,0 -0.34,-0.19 0,-0.2 0.19,-0.2 0.33,-0.2 z"
   inkscape:connector-curvature="0"
   style="fill:#000000;stroke-width:0" />
<path
   id="path3308"
   d="m 249.46,660.6 0,0.02 0.01,0.03 0,0.02 0.01,0.02 0,0.02 0.01,0.03 0.01,0.05 0.01,0.05 0.02,0.05 0.01,0.05 0.01,0.05 0.01,0.02 0,0.02 0.01,0.02 0,0.03 0.01,0.02 0,0.02 0.01,0.02 0,0.01 0,0.02 0.01,0.02 0,0.01 0,0.01 0,0.01 0.01,0.01 0,0.01 0,0.01 c 0,0.18 -0.14,0.27 -0.29,0.27 -0.12,0 -0.3,-0.08 -0.37,-0.28 -0.03,-0.07 -0.5,-1.97 -0.57,-2.23 -0.07,-0.29 -0.09,-0.47 -0.09,-0.65 0,-0.11 0,-0.13 0.01,-0.18 -0.23,-0.53 -0.52,-0.84 -0.91,-0.84 -0.8,0 -0.8,0.74 -0.8,0.91 0,0.32 0.05,0.7 0.52,1.92 0.11,0.3 0.17,0.44 0.17,0.64 0,0.45 -0.33,0.82 -0.82,0.82 -0.94,0 -1.31,-1.45 -1.31,-1.53 0,-0.1 0.1,-0.1 0.12,-0.1 0.1,0 0.11,0.02 0.16,0.17 0.27,0.93 0.66,1.24 1,1.24 0.09,0 0.25,-0.01 0.25,-0.33 0,-0.25 -0.11,-0.53 -0.18,-0.7 -0.43,-1.17 -0.55,-1.62 -0.55,-2 0,-0.91 0.66,-1.25 1.41,-1.25 0.17,0 0.63,0 1.03,0.69 0.26,-0.64 0.95,-0.69 1.25,-0.69 0.74,0 1.18,0.62 1.44,1.22 0.34,0.77 0.66,2.1 0.66,2.58 0,0.55 -0.27,0.7 -0.44,0.7 -0.25,0 -0.5,-0.26 -0.5,-0.48 0,-0.13 0.06,-0.19 0.15,-0.27 0.11,-0.11 0.36,-0.37 0.36,-0.84 0,-0.34 -0.29,-1.32 -0.55,-1.82 -0.26,-0.53 -0.61,-0.88 -1.09,-0.88 -0.47,0 -0.74,0.3 -0.74,0.87 0,0.28 0.07,0.58 0.11,0.72 z"
   inkscape:connector-curvature="0"
   style="fill:#000000;stroke-width:0" />
<path
   id="path3310"
   d="m 258.35,660 -1.99,1.97 c -0.12,0.12 -0.14,0.14 -0.22,0.14 -0.1,0 -0.2,-0.09 -0.2,-0.2 0,-0.07 0.02,-0.09 0.13,-0.19 l 1.99,-2 -1.99,-2 c -0.11,-0.11 -0.13,-0.13 -0.13,-0.2 0,-0.11 0.1,-0.2 0.2,-0.2 0.08,0 0.1,0.02 0.22,0.14 l 1.98,1.98 2.06,-2.06 c 0.02,-0.01 0.08,-0.06 0.15,-0.06 0.11,0 0.19,0.09 0.19,0.2 0,0.02 0,0.06 -0.03,0.11 -0.01,0.02 -1.59,1.58 -2.09,2.09 l 1.83,1.82 c 0.04,0.06 0.19,0.18 0.24,0.24 0.01,0.02 0.05,0.06 0.05,0.13 0,0.11 -0.08,0.2 -0.19,0.2 -0.09,0 -0.12,-0.04 -0.23,-0.15 z"
   inkscape:connector-curvature="0"
   style="fill:#000000;stroke-width:0" />
<path
   id="path3312"
   d="m 267.73,654.85 0,0.01 0,0 0,0 0,0.01 0,0 0,0 0,0.01 0,0 -0.01,0 0,0.01 0,0 0,0.01 -0.01,0 0,0.01 0,0 -0.01,0.01 0,0.01 -0.01,0 0,0.01 -0.01,0 0,0.01 0,0 -0.01,0 0,0.01 -0.01,0 0,0.01 0,0 -0.01,0.01 0,0 -0.01,0.01 0,0 -0.01,0.01 -0.01,0.01 0,0 -0.01,0.01 0,0.01 -0.01,0 -0.01,0.01 -0.01,0.01 0,0 -0.01,0.01 -0.01,0.01 c -1.24,1.25 -1.56,3.13 -1.56,4.65 0,1.73 0.38,3.45 1.6,4.7 0.13,0.12 0.13,0.14 0.13,0.17 0,0.07 -0.04,0.09 -0.1,0.09 -0.1,0 -0.99,-0.67 -1.58,-1.93 -0.51,-1.09 -0.63,-2.2 -0.63,-3.03 0,-0.78 0.11,-1.98 0.66,-3.1 0.6,-1.22 1.45,-1.87 1.55,-1.87 0.06,0 0.1,0.03 0.1,0.1 z"
   inkscape:connector-curvature="0"
   style="fill:#000000;stroke-width:0" />
<path
   id="path3314"
   d="m 271.64,660.23 0,0.03 0.01,0.03 0.01,0.03 0.01,0.04 0.01,0.04 0.01,0.04 0.01,0.04 0.02,0.05 0.01,0.04 0.02,0.05 0.02,0.05 0.02,0.05 0.02,0.05 0.03,0.05 0.02,0.05 0.03,0.05 0.03,0.05 0.03,0.04 0.03,0.05 0.04,0.04 0.04,0.05 0.04,0.04 0.04,0.04 0.04,0.03 0.05,0.03 0.05,0.03 0.02,0.01 0.03,0.02 0.02,0.01 0.03,0.01 0.03,0.01 0.03,0 0.03,0.01 0.03,0.01 0.03,0 0.03,0 0.03,0.01 0.03,0 c 0.05,0 0.29,0 0.5,-0.13 -0.28,-0.05 -0.48,-0.3 -0.48,-0.54 0,-0.16 0.11,-0.35 0.38,-0.35 0.22,0 0.54,0.18 0.54,0.58 0,0.52 -0.59,0.66 -0.93,0.66 -0.58,0 -0.92,-0.53 -1.04,-0.76 -0.25,0.66 -0.79,0.76 -1.08,0.76 -1.03,0 -1.6,-1.29 -1.6,-1.53 0,-0.1 0.1,-0.1 0.12,-0.1 0.08,0 0.11,0.02 0.13,0.11 0.34,1.05 0.99,1.3 1.33,1.3 0.19,0 0.54,-0.09 0.54,-0.67 0,-0.31 -0.17,-0.97 -0.54,-2.36 -0.16,-0.62 -0.51,-1.04 -0.94,-1.04 -0.06,0 -0.29,0 -0.5,0.13 0.25,0.05 0.47,0.26 0.47,0.54 0,0.27 -0.22,0.35 -0.37,0.35 -0.3,0 -0.55,-0.26 -0.55,-0.58 0,-0.46 0.5,-0.65 0.94,-0.65 0.65,0 1.01,0.69 1.04,0.75 0.12,-0.37 0.48,-0.75 1.08,-0.75 1.02,0 1.59,1.28 1.59,1.53 0,0.1 -0.09,0.1 -0.12,0.1 -0.09,0 -0.11,-0.04 -0.13,-0.11 -0.33,-1.07 -1.01,-1.31 -1.32,-1.31 -0.39,0 -0.55,0.32 -0.55,0.66 0,0.22 0.06,0.44 0.17,0.87 z"
   inkscape:connector-curvature="0"
   style="fill:#000000;stroke-width:0" />
<path
   id="path3316"
   d="m 276.26,660.09 0,0.01 0,0.01 0,0.01 0,0.01 0,0.01 -0.01,0.01 0,0.01 0,0.02 -0.01,0.01 0,0.01 -0.01,0.01 0,0.01 -0.01,0.01 -0.01,0.01 0,0.01 -0.01,0.01 -0.01,0.01 -0.01,0.01 -0.01,0.01 -0.01,0.01 -0.01,0 -0.01,0.01 -0.02,0.01 -0.01,0.01 -0.01,0 -0.02,0.01 -0.01,0 -0.02,0 -0.01,0.01 -0.02,0 -0.02,0 -0.02,0 c -0.18,0 -0.38,-0.18 -0.38,-0.38 0,-0.12 0.09,-0.26 0.27,-0.26 0.21,0 0.39,0.19 0.39,0.38 z"
   inkscape:connector-curvature="0"
   style="fill:#000000;stroke-width:0" />
<path
   id="path3318"
   d="m 274.84,656.55 0,-0.01 -0.01,-0.02 -0.01,-0.03 0,-0.02 -0.01,-0.02 0,-0.01 -0.01,-0.02 0,-0.02 -0.01,-0.02 0,-0.02 0,-0.01 -0.01,-0.01 0,-0.01 0,-0.01 0,-0.01 0,-0.02 0,-0.01 0,-0.01 0,-0.01 c 0,-0.32 0.28,-0.59 0.66,-0.59 0.7,0 1.01,0.96 1.01,1.06 0,0.1 -0.1,0.1 -0.12,0.1 -0.09,0 -0.1,-0.05 -0.13,-0.12 -0.16,-0.56 -0.47,-0.84 -0.74,-0.84 -0.14,0 -0.17,0.09 -0.17,0.24 0,0.16 0.05,0.29 0.11,0.44 0.07,0.19 0.15,0.38 0.22,0.56 0.07,0.17 0.32,0.8 0.34,0.88 0.02,0.07 0.05,0.16 0.05,0.23 0,0.32 -0.28,0.59 -0.67,0.59 -0.69,0 -1.01,-0.95 -1.01,-1.07 0,-0.09 0.1,-0.09 0.12,-0.09 0.1,0 0.11,0.04 0.13,0.11 0.18,0.6 0.49,0.85 0.74,0.85 0.11,0 0.18,-0.05 0.18,-0.24 0,-0.16 -0.04,-0.27 -0.22,-0.7 z"
   inkscape:connector-curvature="0"
   style="fill:#000000;stroke-width:0" />
<path
   id="path3320"
   d="m 286.09,659.52 0.04,0 0.03,0 0.03,0 0.01,0 0.02,0 0.01,0 0.02,0.01 0.01,0 0.02,0 0.01,0 0.02,0.01 0.01,0 0.01,0 0.01,0.01 0.02,0.01 0.01,0 0.01,0.01 0.01,0.01 0.01,0 0,0.01 0.01,0.01 0,0.01 0.01,0 0,0.01 0,0.01 0.01,0 0,0.01 0,0.01 0,0 0.01,0.01 0,0.01 0,0.01 0,0 0,0.01 0,0.01 0,0.01 0,0.01 c 0,0.2 -0.18,0.2 -0.35,0.2 h -5.38 c -0.17,0 -0.35,0 -0.35,-0.2 0,-0.2 0.18,-0.2 0.35,-0.2 z"
   inkscape:connector-curvature="0"
   style="fill:#000000;stroke-width:0" />
<path
   id="path3322"
   d="m 292.82,660.23 0.01,0.03 0.01,0.03 0,0.03 0.01,0.04 0.01,0.04 0.02,0.04 0.01,0.04 0.01,0.05 0.02,0.04 0.02,0.05 0.02,0.05 0.02,0.05 0.02,0.05 0.02,0.05 0.03,0.05 0.03,0.05 0.03,0.05 0.03,0.04 0.03,0.05 0.04,0.04 0.03,0.05 0.04,0.04 0.04,0.04 0.05,0.03 0.05,0.03 0.04,0.03 0.03,0.01 0.02,0.02 0.03,0.01 0.03,0.01 0.03,0.01 0.02,0 0.03,0.01 0.03,0.01 0.03,0 0.03,0 0.04,0.01 0.03,0 c 0.05,0 0.29,0 0.5,-0.13 -0.28,-0.05 -0.48,-0.3 -0.48,-0.54 0,-0.16 0.11,-0.35 0.38,-0.35 0.21,0 0.53,0.18 0.53,0.58 0,0.52 -0.58,0.66 -0.92,0.66 -0.58,0 -0.93,-0.53 -1.05,-0.76 -0.25,0.66 -0.78,0.76 -1.07,0.76 -1.04,0 -1.6,-1.29 -1.6,-1.53 0,-0.1 0.1,-0.1 0.12,-0.1 0.08,0 0.11,0.02 0.13,0.11 0.33,1.05 0.99,1.3 1.33,1.3 0.19,0 0.54,-0.09 0.54,-0.67 0,-0.31 -0.17,-0.97 -0.54,-2.36 -0.16,-0.62 -0.51,-1.04 -0.95,-1.04 -0.06,0 -0.28,0 -0.49,0.13 0.24,0.05 0.46,0.26 0.46,0.54 0,0.27 -0.22,0.35 -0.36,0.35 -0.3,0 -0.55,-0.26 -0.55,-0.58 0,-0.46 0.5,-0.65 0.93,-0.65 0.66,0 1.02,0.69 1.05,0.75 0.12,-0.37 0.48,-0.75 1.07,-0.75 1.03,0 1.59,1.28 1.59,1.53 0,0.1 -0.08,0.1 -0.11,0.1 -0.09,0 -0.11,-0.04 -0.13,-0.11 -0.33,-1.07 -1.01,-1.31 -1.33,-1.31 -0.38,0 -0.54,0.32 -0.54,0.66 0,0.22 0.06,0.44 0.16,0.87 z"
   inkscape:connector-curvature="0"
   style="fill:#000000;stroke-width:0" />
<path
   id="path3324"
   d="m 301.07,660.54 -0.01,0 0,0.01 0,0 0,0 0,0.01 0,0 0,0 0,0.01 0,0 0,0.01 0,0 -0.01,0 0,0.01 0,0 0,0 0,0.01 -0.01,0 0,0 0,0.01 -0.01,0 0,0 0,0.01 -0.01,0 0,0 -0.01,0 0,0 -0.01,0.01 0,0 0,0 -0.01,0 0,0 0,0 -0.01,0 0,0 0,0 0,0 c -0.05,0 -0.07,-0.02 -0.13,-0.08 l -0.51,-0.54 c -0.06,0.08 -0.45,0.62 -1.31,0.62 -1.69,0 -3.35,-1.5 -3.35,-3.07 0,-1.08 0.82,-1.96 2.16,-1.96 0.61,0 1.26,0.16 1.62,0.55 0.07,-0.15 0.26,-0.4 0.34,-0.4 0.07,0 0.08,0.03 0.12,0.17 l 0.13,0.54 c 0.03,0.12 0.13,0.54 0.15,0.62 0.09,0.32 0.09,0.32 0.5,0.33 0.05,0 0.16,0 0.16,0.15 0,0.06 -0.05,0.1 -0.11,0.1 -0.23,0 -0.52,-0.03 -0.76,-0.03 -0.18,0 -0.41,0 -0.58,0.01 -0.18,0.01 -0.38,0.02 -0.55,0.02 -0.05,0 -0.16,0 -0.16,-0.15 0,-0.1 0.08,-0.1 0.25,-0.1 0.14,0 0.28,0 0.41,-0.01 0.22,-0.02 0.23,-0.05 0.23,-0.14 0,-0.02 0,-0.04 -0.05,-0.22 -0.05,-0.19 -0.12,-0.51 -0.15,-0.58 -0.21,-0.42 -0.85,-0.61 -1.4,-0.61 -0.69,0 -1.6,0.34 -1.6,1.51 0,0.74 0.34,1.68 0.86,2.2 0.72,0.71 1.46,0.82 1.85,0.82 0.81,0 1.28,-0.59 1.28,-1.36 0,-0.2 -0.02,-0.25 -0.02,-0.29 0,-0.09 0.09,-0.09 0.13,-0.09 0.11,0 0.11,0.02 0.14,0.15 z"
   inkscape:connector-curvature="0"
   style="fill:#000000;stroke-width:0" />
<path
   id="path3326"
   d="m 304.77,659.72 0,0.07 0,0.08 0,0.08 -0.01,0.08 0,0.17 -0.02,0.17 -0.01,0.18 -0.02,0.19 -0.03,0.2 -0.03,0.2 -0.04,0.2 -0.05,0.21 -0.05,0.21 -0.06,0.21 -0.07,0.21 -0.08,0.21 -0.04,0.11 -0.05,0.11 -0.05,0.1 -0.05,0.11 c -0.59,1.22 -1.45,1.86 -1.55,1.86 -0.06,0 -0.1,-0.03 -0.1,-0.09 0,-0.03 0,-0.05 0.19,-0.23 0.98,-0.99 1.54,-2.57 1.54,-4.64 0,-1.7 -0.36,-3.45 -1.6,-4.7 -0.13,-0.12 -0.13,-0.14 -0.13,-0.17 0,-0.06 0.04,-0.1 0.1,-0.1 0.1,0 1,0.68 1.58,1.94 0.51,1.09 0.63,2.19 0.63,3.03 z"
   inkscape:connector-curvature="0"
   style="fill:#000000;stroke-width:0" />
</g>
<g
   id="g3546"
   transform="matrix(1.1629167,0,0,1.1629167,146.8123,-79.385654)"
   xml:space="preserve"
   stroke-miterlimit="10.433"
   font-style="normal"
   font-variant="normal"
   font-weight="normal"
   font-stretch="normal"
   font-size-adjust="none"
   letter-spacing="normal"
   word-spacing="normal"
   ns0:text="$x_i$"
   ns0:preamble=""
   style="font-style:normal;font-variant:normal;font-weight:normal;font-stretch:normal;letter-spacing:normal;word-spacing:normal;text-anchor:start;fill:none;stroke:#000000;stroke-linecap:butt;stroke-linejoin:miter;stroke-miterlimit:10.43299961;stroke-opacity:1;stroke-dasharray:none;stroke-dashoffset:0">
<path
   style="fill:#000000;stroke-width:0"
   inkscape:connector-curvature="0"
   d="m 226.76,660.23 0,0.03 0.01,0.03 0.01,0.03 0.01,0.04 0.01,0.04 0.01,0.04 0.01,0.04 0.02,0.05 0.01,0.04 0.02,0.05 0.02,0.05 0.02,0.05 0.02,0.05 0.03,0.05 0.02,0.05 0.03,0.05 0.03,0.05 0.03,0.04 0.03,0.05 0.04,0.04 0.04,0.05 0.04,0.04 0.04,0.04 0.04,0.03 0.05,0.03 0.05,0.03 0.02,0.01 0.03,0.02 0.02,0.01 0.03,0.01 0.03,0.01 0.03,0 0.03,0.01 0.02,0.01 0.04,0 0.03,0 0.03,0.01 0.03,0 c 0.05,0 0.29,0 0.5,-0.13 -0.28,-0.05 -0.48,-0.3 -0.48,-0.54 0,-0.16 0.11,-0.35 0.38,-0.35 0.22,0 0.54,0.18 0.54,0.58 0,0.52 -0.59,0.66 -0.93,0.66 -0.58,0 -0.93,-0.53 -1.04,-0.76 -0.25,0.66 -0.79,0.76 -1.08,0.76 -1.03,0 -1.6,-1.29 -1.6,-1.53 0,-0.1 0.1,-0.1 0.12,-0.1 0.08,0 0.11,0.02 0.13,0.11 0.34,1.05 0.99,1.3 1.33,1.3 0.19,0 0.54,-0.09 0.54,-0.67 0,-0.31 -0.17,-0.97 -0.54,-2.36 -0.16,-0.62 -0.51,-1.04 -0.94,-1.04 -0.06,0 -0.29,0 -0.5,0.13 0.25,0.05 0.47,0.26 0.47,0.54 0,0.27 -0.22,0.35 -0.37,0.35 -0.3,0 -0.55,-0.26 -0.55,-0.58 0,-0.46 0.5,-0.65 0.94,-0.65 0.65,0 1.01,0.69 1.04,0.75 0.12,-0.37 0.48,-0.75 1.07,-0.75 1.03,0 1.6,1.28 1.6,1.53 0,0.1 -0.09,0.1 -0.12,0.1 -0.09,0 -0.11,-0.04 -0.13,-0.11 -0.33,-1.07 -1.01,-1.31 -1.33,-1.31 -0.38,0 -0.54,0.32 -0.54,0.66 0,0.22 0.06,0.44 0.17,0.87 z"
   id="path3548" />
<path
   style="fill:#000000;stroke-width:0"
   inkscape:connector-curvature="0"
   d="m 231.38,660.09 0,0.01 0,0.01 0,0.01 0,0.01 0,0.01 -0.01,0.01 0,0.01 0,0.02 -0.01,0.01 0,0.01 -0.01,0.01 0,0.01 -0.01,0.01 -0.01,0.01 -0.01,0.01 0,0.01 -0.01,0.01 -0.01,0.01 -0.01,0.01 -0.01,0.01 -0.01,0 -0.02,0.01 -0.01,0.01 -0.01,0.01 -0.01,0 -0.02,0.01 -0.01,0 -0.02,0 -0.01,0.01 -0.02,0 -0.02,0 -0.02,0 c -0.18,0 -0.39,-0.18 -0.39,-0.38 0,-0.12 0.09,-0.26 0.28,-0.26 0.2,0 0.39,0.19 0.39,0.38 z"
   id="path3550" />
<path
   style="fill:#000000;stroke-width:0"
   inkscape:connector-curvature="0"
   d="m 229.96,656.55 0,-0.01 -0.01,-0.02 -0.01,-0.03 -0.01,-0.02 0,-0.02 -0.01,-0.01 0,-0.02 0,-0.02 -0.01,-0.02 0,-0.02 -0.01,-0.01 0,-0.01 0,-0.01 0,-0.01 0,-0.01 0,-0.02 0,-0.01 0,-0.01 0,-0.01 c 0,-0.32 0.28,-0.59 0.66,-0.59 0.7,0 1,0.96 1,1.06 0,0.1 -0.09,0.1 -0.11,0.1 -0.1,0 -0.1,-0.05 -0.13,-0.12 -0.16,-0.56 -0.47,-0.84 -0.74,-0.84 -0.14,0 -0.17,0.09 -0.17,0.24 0,0.16 0.05,0.29 0.11,0.44 0.07,0.19 0.14,0.38 0.22,0.56 0.06,0.17 0.31,0.8 0.34,0.88 0.02,0.07 0.04,0.16 0.04,0.23 0,0.32 -0.27,0.59 -0.66,0.59 -0.69,0 -1.01,-0.95 -1.01,-1.07 0,-0.09 0.1,-0.09 0.12,-0.09 0.1,0 0.11,0.04 0.13,0.11 0.18,0.6 0.48,0.85 0.74,0.85 0.11,0 0.18,-0.05 0.18,-0.24 0,-0.16 -0.05,-0.27 -0.22,-0.7 z"
   id="path3552" />
</g>
<path
   sodipodi:type="arc"
   style="fill:#ffff00;fill-opacity:1;stroke:#ff0000;stroke-width:3;stroke-linejoin:round;stroke-miterlimit:10.43299961;stroke-opacity:1;stroke-dasharray:none;stroke-dashoffset:0"
   id="path3640"
   sodipodi:cx="340"
   sodipodi:cy="-167.63782"
   sodipodi:rx="60"
   sodipodi:ry="60"
   d="m 400,-167.63782 c 0,33.13709 -26.86292,60 -60,60 -33.13708,0 -60,-26.86291 -60,-60 0,-33.13708 26.86292,-60 60,-60 33.13708,0 60,26.86292 60,60 z"
   transform="matrix(0.17316556,0,0,-0.17316556,351.56702,538.40024)" /><g
   style="font-style:normal;font-variant:normal;font-weight:normal;font-stretch:normal;letter-spacing:normal;word-spacing:normal;text-anchor:start;fill:none;stroke:#000000;stroke-linecap:butt;stroke-linejoin:miter;stroke-miterlimit:10.43299961;stroke-opacity:1;stroke-dasharray:none;stroke-dashoffset:0"
   ns0:preamble=""
   ns0:text="$x_G$"
   text-anchor="start"
   word-spacing="normal"
   letter-spacing="normal"
   font-size-adjust="none"
   font-stretch="normal"
   font-weight="normal"
   font-variant="normal"
   font-style="normal"
   fill-opacity="1"
   fill-rule="evenodd"
   fill="none"
   stroke-opacity="1"
   stroke-dashoffset="0"
   stroke-dasharray="none"
   stroke-miterlimit="10.433"
   stroke-linejoin="miter"
   stroke-linecap="butt"
   stroke="black"
   xml:space="preserve"
   transform="matrix(1.1629167,0,0,1.1629167,146.8123,-200.60151)"
   id="g3739">
<path
   id="path3741"
   fill="black"
   stroke-width="0"
   d="M226.76,660.23 L226.76,660.26 L226.77,660.29 L226.78,660.32 L226.79,660.36 L226.8,660.4 L226.81,660.44 L226.82,660.48 L226.84,660.53 L226.85,660.57 L226.87,660.62 L226.89,660.67 L226.91,660.72 L226.93,660.77 L226.96,660.82 L226.98,660.87 L227.01,660.92 L227.04,660.97 L227.07,661.01 L227.1,661.06 L227.14,661.1 L227.18,661.15 L227.22,661.19 L227.26,661.23 L227.3,661.26 L227.35,661.29 L227.4,661.32 L227.42,661.33 L227.45,661.35 L227.47,661.36 L227.5,661.37 L227.53,661.38 L227.56,661.38 L227.59,661.39 L227.61,661.4 L227.65,661.4 L227.68,661.4 L227.71,661.41 L227.74,661.41 C227.79,661.41,228.03,661.41,228.24,661.28 C227.96,661.23,227.76,660.98,227.76,660.74 C227.76,660.58,227.87,660.39,228.14,660.39 C228.36,660.39,228.68,660.57,228.68,660.97 C228.68,661.49,228.09,661.63,227.75,661.63 C227.17,661.63,226.82,661.1,226.71,660.87 C226.46,661.53,225.92,661.63,225.63,661.63 C224.6,661.63,224.03,660.34,224.03,660.1 C224.03,660,224.13,660,224.15,660 C224.23,660,224.26,660.02,224.28,660.11 C224.62,661.16,225.27,661.41,225.61,661.41 C225.8,661.41,226.15,661.32,226.15,660.74 C226.15,660.43,225.98,659.77,225.61,658.38 C225.45,657.76,225.1,657.34,224.67,657.34 C224.61,657.34,224.38,657.34,224.17,657.47 C224.42,657.52,224.64,657.73,224.64,658.01 C224.64,658.28,224.42,658.36,224.27,658.36 C223.97,658.36,223.72,658.1,223.72,657.78 C223.72,657.32,224.22,657.13,224.66,657.13 C225.31,657.13,225.67,657.82,225.7,657.88 C225.82,657.51,226.18,657.13,226.77,657.13 C227.8,657.13,228.37,658.41,228.37,658.66 C228.37,658.76,228.28,658.76,228.25,658.76 C228.16,658.76,228.14,658.72,228.12,658.65 C227.79,657.58,227.11,657.34,226.79,657.34 C226.41,657.34,226.25,657.66,226.25,658 C226.25,658.22,226.31,658.44,226.42,658.87 Z " />
<path
   id="path3743"
   fill="black"
   stroke-width="0"
   d="M235,660.54 L235,660.54 L235,660.55 L235,660.55 L235,660.55 L235,660.56 L234.99,660.56 L234.99,660.56 L234.99,660.57 L234.99,660.57 L234.99,660.58 L234.99,660.58 L234.99,660.58 L234.98,660.59 L234.98,660.59 L234.98,660.59 L234.98,660.6 L234.98,660.6 L234.97,660.6 L234.97,660.61 L234.97,660.61 L234.96,660.61 L234.96,660.62 L234.95,660.62 L234.95,660.62 L234.95,660.62 L234.94,660.62 L234.94,660.63 L234.93,660.63 L234.93,660.63 L234.93,660.63 L234.92,660.63 L234.92,660.63 L234.92,660.63 L234.91,660.63 L234.91,660.63 L234.91,660.63 C234.86,660.63,234.84,660.61,234.78,660.55 L234.27,660.01 C234.21,660.09,233.82,660.63,232.96,660.63 C231.27,660.63,229.61,659.13,229.61,657.56 C229.61,656.48,230.43,655.6,231.77,655.6 C232.38,655.6,233.03,655.76,233.4,656.15 C233.46,656,233.65,655.75,233.74,655.75 C233.8,655.75,233.81,655.78,233.85,655.92 L233.98,656.46 C234.01,656.58,234.11,657,234.13,657.08 C234.22,657.4,234.22,657.4,234.63,657.41 C234.68,657.41,234.79,657.41,234.79,657.56 C234.79,657.62,234.74,657.66,234.68,657.66 C234.45,657.66,234.16,657.63,233.92,657.63 C233.74,657.63,233.51,657.63,233.34,657.64 C233.16,657.65,232.96,657.66,232.79,657.66 C232.74,657.66,232.64,657.66,232.64,657.51 C232.64,657.41,232.71,657.41,232.89,657.41 C233.02,657.41,233.16,657.41,233.29,657.4 C233.51,657.38,233.52,657.35,233.52,657.26 C233.52,657.24,233.52,657.22,233.47,657.04 C233.42,656.85,233.35,656.53,233.32,656.46 C233.12,656.04,232.47,655.85,231.93,655.85 C231.23,655.85,230.32,656.19,230.32,657.36 C230.32,658.1,230.66,659.04,231.18,659.56 C231.9,660.27,232.64,660.38,233.03,660.38 C233.84,660.38,234.31,659.79,234.31,659.02 C234.31,658.82,234.29,658.77,234.29,658.73 C234.29,658.64,234.38,658.64,234.42,658.64 C234.53,658.64,234.53,658.66,234.57,658.79 Z " />
</g>
</g>  </g>
</svg>
