<?xml version="1.0" encoding="UTF-8" standalone="no"?>
<!-- Created with Inkscape (http://www.inkscape.org/) -->

<svg
   xmlns:dc="http://purl.org/dc/elements/1.1/"
   xmlns:cc="http://creativecommons.org/ns#"
   xmlns:rdf="http://www.w3.org/1999/02/22-rdf-syntax-ns#"
   xmlns:svg="http://www.w3.org/2000/svg"
   xmlns="http://www.w3.org/2000/svg"
   xmlns:sodipodi="http://sodipodi.sourceforge.net/DTD/sodipodi-0.dtd"
   xmlns:inkscape="http://www.inkscape.org/namespaces/inkscape"
   width="210mm"
   height="297mm"
   id="svg2"
   version="1.1"
   inkscape:version="0.48.4 r9939"
   sodipodi:docname="partial.svg">
  <defs
     id="defs4">
    <marker
       inkscape:stockid="Arrow1Mstart"
       orient="auto"
       refY="0.0"
       refX="0.0"
       id="Arrow1Mstart"
       style="overflow:visible">
      <path
         id="path3818"
         d="M 0.0,0.0 L 5.0,-5.0 L -12.5,0.0 L 5.0,5.0 L 0.0,0.0 z "
         style="fill-rule:evenodd;stroke:#000000;stroke-width:1.0pt"
         transform="scale(0.4) translate(10,0)" />
    </marker>
    <marker
       inkscape:stockid="Arrow1Mend"
       orient="auto"
       refY="0.0"
       refX="0.0"
       id="Arrow1Mend"
       style="overflow:visible;">
      <path
         id="path3789"
         d="M 0.0,0.0 L 5.0,-5.0 L -12.5,0.0 L 5.0,5.0 L 0.0,0.0 z "
         style="fill-rule:evenodd;stroke:#000000;stroke-width:1.0pt;"
         transform="scale(0.4) rotate(180) translate(10,0)" />
    </marker>
    <marker
       inkscape:stockid="Arrow1Lend"
       orient="auto"
       refY="0.0"
       refX="0.0"
       id="Arrow1Lend"
       style="overflow:visible;">
      <path
         id="path3783"
         d="M 0.0,0.0 L 5.0,-5.0 L -12.5,0.0 L 5.0,5.0 L 0.0,0.0 z "
         style="fill-rule:evenodd;stroke:#000000;stroke-width:1.0pt;"
         transform="scale(0.8) rotate(180) translate(12.5,0)" />
    </marker>
  </defs>
  <sodipodi:namedview
     id="base"
     pagecolor="#ffffff"
     bordercolor="#666666"
     borderopacity="1.0"
     inkscape:pageopacity="0.0"
     inkscape:pageshadow="2"
     inkscape:zoom="1.979899"
     inkscape:cx="662.85753"
     inkscape:cy="933.42952"
     inkscape:document-units="px"
     inkscape:current-layer="layer1"
     showgrid="true"
     inkscape:snap-global="true"
     inkscape:window-width="1412"
     inkscape:window-height="779"
     inkscape:window-x="188"
     inkscape:window-y="93"
     inkscape:window-maximized="0"
     showguides="true"
     inkscape:guide-bbox="true">
    <inkscape:grid
       type="xygrid"
       id="grid2985" />
  </sodipodi:namedview>
  <metadata
     id="metadata7">
    <rdf:RDF>
      <cc:Work
         rdf:about="">
        <dc:format>image/svg+xml</dc:format>
        <dc:type
           rdf:resource="http://purl.org/dc/dcmitype/StillImage" />
        <dc:title />
      </cc:Work>
    </rdf:RDF>
  </metadata>
  <g
     inkscape:label="レイヤー 1"
     inkscape:groupmode="layer"
     id="layer1">
    <path
       style="fill:none;stroke:#000000;stroke-width:1px;stroke-linecap:butt;stroke-linejoin:miter;stroke-opacity:1;marker-end:url(#Arrow1Mend)"
       d="m -10,112.36218 200,0"
       id="path3033"
       inkscape:connector-curvature="0" />
    <path
       style="fill:none;stroke:#000000;stroke-width:1px;stroke-linecap:butt;stroke-linejoin:miter;stroke-opacity:1"
       d="m -10,102.36218 c 0,-9.999997 21.235587,-41.85804 40,-39.999997 11.960014,1.184275 18.039986,28.815725 30,30 23.45552,2.322554 40,-60 50,-50 10,9.999999 6.37101,26.224989 20,30 13.24499,3.668651 27.18096,-14.955927 40,-10 11.20992,4.333833 20,30 20,30"
       id="path4009"
       inkscape:connector-curvature="0"
       sodipodi:nodetypes="csssssc" />
    <text
       xml:space="preserve"
       style="font-size:16px;font-style:normal;font-weight:normal;line-height:125%;letter-spacing:0px;word-spacing:0px;fill:#000000;fill-opacity:1;stroke:none;font-family:Sans;text-anchor:middle;text-align:center"
       x="203.46819"
       y="118.50505"
       id="text4011"
       sodipodi:linespacing="125%"><tspan
         sodipodi:role="line"
         id="tspan4013"
         x="190.71428"
         y="118.50505">$x$</tspan></text>
    <text
       sodipodi:linespacing="125%"
       id="text4031"
       y="34.505051"
       x="22.42131"
       style="font-size:16px;font-style:normal;font-weight:normal;line-height:125%;letter-spacing:0px;word-spacing:0px;fill:#000000;fill-opacity:1;stroke:none;font-family:Sans;text-anchor:middle;text-align:center"
       xml:space="preserve"><tspan
         y="34.505051"
         x="0.71427917"
         id="tspan4033"
         sodipodi:role="line">$t=0$</tspan></text>
    <path
       inkscape:connector-curvature="0"
       id="path4035"
       d="m 630,112.36218 200,0"
       style="fill:none;stroke:#000000;stroke-width:1px;stroke-linecap:butt;stroke-linejoin:miter;stroke-opacity:1;marker-end:url(#Arrow1Mend)" />
    <path
       sodipodi:nodetypes="csssssc"
       inkscape:connector-curvature="0"
       id="path4037"
       d="m 630,102.36218 c 0,-9.999997 30,-59.999997 50,-39.999997 10,10 11.50164,-28.498363 20,-20 20,20 35.85786,59.999997 50,59.999997 20,0 16.37101,-63.775008 30,-59.999997 13.24499,3.668651 10.28174,20.281744 20,30 10,9.999999 30,20 30,20"
       style="fill:none;stroke:#000000;stroke-width:1px;stroke-linecap:butt;stroke-linejoin:miter;stroke-opacity:1" />
    <text
       sodipodi:linespacing="125%"
       id="text4039"
       y="116.50505"
       x="847.4682"
       style="font-size:16px;font-style:normal;font-weight:normal;text-align:center;line-height:125%;letter-spacing:0px;word-spacing:0px;text-anchor:middle;fill:#000000;fill-opacity:1;stroke:none;font-family:Sans"
       xml:space="preserve"><tspan
         y="116.50505"
         x="847.4682"
         id="tspan4041"
         sodipodi:role="line">$x$</tspan></text>
    <text
       xml:space="preserve"
       style="font-size:16px;font-style:normal;font-weight:normal;text-align:center;line-height:125%;letter-spacing:0px;word-spacing:0px;text-anchor:middle;fill:#000000;fill-opacity:1;stroke:none;font-family:Sans"
       x="662.17133"
       y="34.505051"
       id="text4043"
       sodipodi:linespacing="125%"><tspan
         sodipodi:role="line"
         id="tspan4045"
         x="662.17133"
         y="34.505051">$t=T$</tspan></text>
    <path
       inkscape:connector-curvature="0"
       id="path4049"
       d="m 250,112.36218 200,0"
       style="fill:none;stroke:#000000;stroke-width:1px;stroke-linecap:butt;stroke-linejoin:miter;stroke-opacity:1;marker-end:url(#Arrow1Mend)" />
    <path
       sodipodi:nodetypes="csssssc"
       inkscape:connector-curvature="0"
       id="path4051"
       d="m 250,102.36218 c 0,-9.999997 21.23559,-51.85804 40,-49.999997 11.96001,1.184275 18.03999,28.815725 30,30 23.45552,2.322554 40,-40 50,-30 10,9.999999 6.37101,16.224989 20,20 13.24499,3.668651 27.18096,-24.955927 40,-20 11.20992,4.333833 20,40 20,40"
       style="fill:none;stroke:#000000;stroke-width:1px;stroke-linecap:butt;stroke-linejoin:miter;stroke-opacity:1" />
    <text
       sodipodi:linespacing="125%"
       id="text4053"
       y="116.50505"
       x="467.4682"
       style="font-size:16px;font-style:normal;font-weight:normal;line-height:125%;letter-spacing:0px;word-spacing:0px;fill:#000000;fill-opacity:1;stroke:none;font-family:Sans;text-anchor:middle;text-align:center"
       xml:space="preserve"><tspan
         y="116.50505"
         x="454.71429"
         id="tspan4055"
         sodipodi:role="line">$x$</tspan></text>
    <text
       xml:space="preserve"
       style="font-size:16px;font-style:normal;font-weight:normal;line-height:125%;letter-spacing:0px;word-spacing:0px;fill:#000000;fill-opacity:1;stroke:none;font-family:Sans;text-anchor:middle;text-align:center"
       x="307.2807"
       y="34.505051"
       id="text4057"
       sodipodi:linespacing="125%"><tspan
         sodipodi:role="line"
         id="tspan4059"
         x="260.71429"
         y="34.505051">$t=\Delta t$</tspan></text>
    <path
       style="fill:none;stroke:#000000;stroke-width:0.53725111px;stroke-linecap:butt;stroke-linejoin:miter;stroke-opacity:1;marker-end:url(#Arrow1Lend)"
       d="m 206.91148,82.835708 c 0,0 4.8046,-6.638116 9.3518,-6.172906 7.24418,0.741131 1.51815,11.416296 8.73424,12.251857 2.3244,0.269149 3.01701,-2.27653 5.02018,-3.039443 4.27646,-1.62869 14.30098,-3.039508 14.30098,-3.039508"
       id="path4061"
       inkscape:connector-curvature="0"
       sodipodi:nodetypes="caaac" />
    <path
       sodipodi:nodetypes="caaac"
       inkscape:connector-curvature="0"
       id="path4621"
       d="m 466.91148,82.835708 c 0,0 4.8046,-6.638116 9.3518,-6.172906 7.24418,0.741131 1.51815,11.416296 8.73424,12.251857 2.3244,0.269149 3.01701,-2.27653 5.02018,-3.039443 4.27646,-1.62869 14.30098,-3.039508 14.30098,-3.039508"
       style="fill:none;stroke:#000000;stroke-width:0.53725111px;stroke-linecap:butt;stroke-linejoin:miter;stroke-opacity:1;marker-end:url(#Arrow1Lend)" />
    <path
       style="fill:none;stroke:#000000;stroke-width:0.53725111px;stroke-linecap:butt;stroke-linejoin:miter;stroke-opacity:1;marker-end:url(#Arrow1Lend)"
       d="m 586.91148,82.835708 c 0,0 4.8046,-6.638116 9.3518,-6.172906 7.24418,0.741131 1.51815,11.416296 8.73424,12.251857 2.3244,0.269149 3.01701,-2.27653 5.02018,-3.039443 4.27646,-1.62869 14.30098,-3.039508 14.30098,-3.039508"
       id="path4623"
       inkscape:connector-curvature="0"
       sodipodi:nodetypes="caaac" />
    <text
       xml:space="preserve"
       style="font-size:16px;font-style:normal;font-weight:normal;line-height:125%;letter-spacing:0px;word-spacing:0px;fill:#000000;fill-opacity:1;stroke:none;font-family:Sans"
       x="549.55078"
       y="87.362183"
       id="text4625"
       sodipodi:linespacing="125%"><tspan
         sodipodi:role="line"
         id="tspan4627"
         x="549.55078"
         y="87.362183"
         style="text-align:center;text-anchor:middle">$\cdots$</tspan></text>
  </g>
</svg>
